<svg xmlns="http://www.w3.org/2000/svg" xmlns:xlink="http://www.w3.org/1999/xlink" height="50" width="50">
  <defs>
    <rect id="rect-1" opacity="1" x="0" y="0" width="50" height="50"/>
    <mask id="mask-2" maskUnits="userSpaceOnUse" maskContentUnits="userSpaceOnUse">
      <rect opacity="1" x="0" y="0" width="50" height="50" fill="Black"/>
      <use xlink:href="#rect-1" fill="White"/>
    </mask>
  </defs>
  <g opacity="1">
    <g/>
    <g mask="url(#mask-2)">
      <g opacity="1">
        <g opacity="1">
          <path fill="rgb(255,255,255)" fill-opacity="1" opacity="1" fill-rule="evenodd" d="M46.554667154948035 0L30.67718505859387 0C28.774108886718867 0 27.231648763020956 1.5425618489583328 27.231648763020956 3.445434570312499L27.231648763020956 19.32291666666666C27.231648763020956 21.225789388020825 28.774108886718874 22.76835123697916 30.67718505859387 22.76835123697916L46.554667154948035 22.76835123697916C48.457438151041785 22.76835123697916 50.000000000000114 21.22578938802083 50.000000000000114 19.32291666666666L50.000000000000114 3.445434570312499C50.000000000000114 1.5425618489583328 48.457438151041785 0 46.554667154948035 0L46.554667154948035 0Z"/>
        </g>
        <g opacity="1">
          <path fill="rgb(255,255,255)" fill-opacity="1" opacity="1" fill-rule="evenodd" d="M19.32281494140625 0L3.4452311197916674 0C1.5424601236979167 0 0 1.5425618489583328 0 3.445434570312499L0 19.32291666666666C0 21.225789388020825 1.5424601236979167 22.76835123697916 3.4452311197916674 22.76835123697916L19.32281494140625 22.76835123697916C21.225789388020832 22.76835123697916 22.768351236979168 21.22578938802083 22.768351236979168 19.32291666666666L22.768351236979168 3.445434570312499C22.768351236979168 1.5425618489583328 21.225789388020836 0 19.32281494140625 0L19.32281494140625 0Z"/>
        </g>
        <g opacity="1">
          <path fill="rgb(255,255,255)" fill-opacity="1" opacity="1" fill-rule="evenodd" d="M46.554667154948035 27.231648763020786L30.67718505859387 27.231648763020786C28.774108886718867 27.231648763020786 27.231648763020956 28.774210611979115 27.231648763020956 30.677083333333282L27.231648763020956 46.55456542968743C27.231648763020956 48.45733642578118 28.774108886718874 49.99999999999993 30.67718505859387 49.99999999999993L46.554667154948035 49.99999999999993C48.457438151041785 49.99999999999993 50.000000000000114 48.4574381510416 50.000000000000114 46.55456542968743L50.000000000000114 30.676981608072868C50.000000000000114 28.77421061197912 48.457438151041785 27.231648763020786 46.55466715494803 27.231648763020786L46.554667154948035 27.231648763020786Z"/>
        </g>
        <g opacity="1">
          <path fill="rgb(255,255,255)" fill-opacity="1" opacity="1" fill-rule="evenodd" d="M19.32281494140625 27.231648763020786L3.4452311197916674 27.231648763020786C1.5424601236979167 27.231648763020786 0 28.77421061197912 0 30.676981608072868L0 46.55456542968743C0 48.45733642578118 1.5424601236979167 49.99999999999993 3.4452311197916674 49.99999999999993L19.32281494140625 49.99999999999993C21.225789388020832 49.99999999999993 22.768351236979168 48.4574381510416 22.768351236979168 46.55456542968743L22.768351236979168 30.676981608072868C22.768351236979168 28.77421061197912 21.225789388020836 27.231648763020786 19.32281494140625 27.231648763020786L19.32281494140625 27.231648763020786Z"/>
        </g>
        <g opacity="1">
          <g opacity="1">
            <path fill="rgb(139,115,171)" fill-opacity="1" opacity="1" fill-rule="evenodd" d="M10.020446777344006 17.822367350260436L12.747701009114833 17.822367350260436L12.747701009114833 12.747802734375016L17.822265625000234 12.747802734375016L17.822265625000234 10.020548502604182L12.747701009114833 10.020548502604182L12.747701009114833 4.945983886718761L10.020446777344006 4.945983886718761L10.020446777344006 10.020548502604182L4.945780436198184 10.020548502604182L4.945780436198184 12.747802734375016L10.020446777344006 12.747802734375016L10.020446777344006 17.822367350260436Z"/>
          </g>
          <g opacity="1">
            <rect fill="rgb(139,115,171)" fill-opacity="1" opacity="1" x="32.177632649739365" y="10.020345052083382" width="12.8765869140625" height="2.727050781249999" rx="0" ry="0"/>
          </g>
          <g opacity="1">
            <rect fill="rgb(139,115,171)" fill-opacity="1" opacity="1" x="4.945882161458208" y="40.51045735677088" width="12.876586914062486" height="2.72705078125" rx="0" ry="0"/>
          </g>
          <g opacity="1">
            <rect fill="rgb(139,115,171)" fill-opacity="1" opacity="1" x="4.945882161458208" y="33.994750976562436" width="12.876586914062486" height="2.727050781249993" rx="0" ry="0"/>
          </g>
          <g opacity="1">
            <path fill="rgb(139,115,171)" fill-opacity="1" opacity="1" fill-rule="evenodd" d="M42.20438639322899 33.099365234375036L38.61582438151023 36.68762207031253L35.027465820312315 33.099365234375036L33.099263509114394 35.02766927083337L36.68741861979148 38.61582438151044L33.099263509114394 42.20397949218753L35.027465820312315 44.13228352864586L38.61582438151023 40.544026692708364L42.20438639322899 44.13228352864586L44.13269042968732 42.20397949218753L40.544128417968565 38.61582438151044L44.13269042968732 35.02766927083337L42.20438639322899 33.099365234375036Z"/>
          </g>
        </g>
      </g>
    </g>
  </g>
</svg>