<?xml version="1.0" encoding="iso-8859-1"?>
<!-- Generator: Adobe Illustrator 19.0.0, SVG Export Plug-In . SVG Version: 6.00 Build 0)  -->
<svg version="1.1" id="Capa_1" xmlns="http://www.w3.org/2000/svg" xmlns:xlink="http://www.w3.org/1999/xlink" x="0px" y="0px"
	 viewBox="0 0 511.49 511.49" style="enable-background:new 0 0 511.49 511.49;" xml:space="preserve">
<path style="fill:#82AF48;" d="M369.074,182.7c4.636-4.714,4.636-12.308,0-16.939l-11.348-11.352
	c-4.636-4.632-12.222-4.632-16.943,0c-4.714,4.718-4.714,12.308,0,17.025l11.27,11.266
	C356.766,187.417,364.36,187.417,369.074,182.7z M354.933,15.993l152.562,152.561L319.493,357.351l-1.007-19.769L307.7,127.876
	c-0.476-13.186-11.667-23.975-24.856-23.975h-15.766L354.933,15.993z M380.344,154.409c4.714,4.718,12.308,4.718,16.943,0
	c4.714-4.632,4.714-12.226,0-16.939l-11.27-11.27c-4.714-4.714-12.308-4.714-16.943,0c-4.714,4.636-4.714,12.226,0,16.943
	L380.344,154.409z"/>
<polygon style="fill:#A0D468;" points="318.353,334.984 289.969,103.902 339.776,53.693 366.202,49.88 473.606,157.288 
	468.55,184.959 "/>
<g style="opacity:0.2;">
	<path d="M323.676,127.3c-0.788-21.649-19.004-39.256-40.646-39.362l-15.952,15.964h15.766c2.536,0,4.955,0.507,7.281,1.241
		l28.229,229.826l0.133,2.614l1.007,19.769l15.194-15.258L323.676,127.3z"/>
</g>
<g>
	<path style="fill:#3A3847;" d="M332.557,133.013c-2.209,0-4.035-1.787-4.035-3.996c0-2.209,1.748-3.996,3.949-3.996h0.086
		c2.2,0,3.995,1.787,3.995,3.996C336.553,131.225,334.758,133.013,332.557,133.013z"/>
	<path style="fill:#3A3847;" d="M343.858,121.712c-2.209,0-4.035-1.787-4.035-3.996s1.748-3.996,3.949-3.996h0.086
		c2.2,0,3.995,1.787,3.995,3.996S346.058,121.712,343.858,121.712z"/>
	<path style="fill:#3A3847;" d="M355.159,110.411c-2.209,0-4.035-1.787-4.035-3.996s1.748-3.996,3.949-3.996h0.086
		c2.2,0,3.995,1.787,3.995,3.996S357.359,110.411,355.159,110.411z"/>
</g>
<g>
	<path style="fill:#A0D468;" d="M386.017,126.2l11.27,11.27c4.714,4.714,4.714,12.308,0,16.939c-4.636,4.718-12.229,4.718-16.943,0
		l-11.27-11.266c-4.714-4.718-4.714-12.308,0-16.943C373.71,121.486,381.304,121.486,386.017,126.2z"/>
	<path style="fill:#A0D468;" d="M357.726,154.409l11.348,11.352c4.636,4.632,4.636,12.226,0,16.939
		c-4.714,4.718-12.308,4.718-17.021,0l-11.27-11.266c-4.714-4.718-4.714-12.308,0-17.025
		C345.505,149.777,353.091,149.777,357.726,154.409z"/>
</g>
<path style="fill:#F2B03B;" d="M415.589,495.497c-26.535,0-47.95-21.501-47.95-47.95v-15.983c0,26.449,21.415,47.95,47.95,47.95
	c26.449,0,47.95-21.501,47.95-47.95v15.983C463.539,473.996,442.038,495.497,415.589,495.497z"/>
<g style="opacity:0.4;">
	<path style="fill:#FFFFFF;" d="M390.669,472.474c-13.806-8.421-23.03-23.585-23.03-40.911v15.983
		c0,26.449,21.415,47.95,47.95,47.95c2.724,0,5.377-0.28,7.983-0.718C409.61,492.43,397.756,484.088,390.669,472.474z"/>
</g>
<path style="fill:#F2B03B;" d="M495.506,319.68v15.983c0,17.661-14.306,31.967-31.967,31.967s-31.967-14.306-31.967-31.967V319.68
	c0,17.661,14.306,31.967,31.967,31.967S495.506,337.341,495.506,319.68z"/>
<g style="opacity:0.4;">
	<path style="fill:#FFFFFF;" d="M450.428,348.774c-11.098-5.011-18.855-16.116-18.855-29.095v15.983
		c0,17.661,14.306,31.967,31.967,31.967c2.778,0,5.424-0.468,7.992-1.132C462.096,364.063,454.369,357.5,450.428,348.774z"/>
</g>
<path style="fill:#FFCE54;" d="M463.539,287.713c17.661,0,31.967,14.305,31.967,31.967c0,17.661-14.306,31.967-31.967,31.967
	s-31.967-14.306-31.967-31.967C431.572,302.017,445.878,287.713,463.539,287.713z"/>
<g style="opacity:0.4;">
	<path style="fill:#FFFFFF;" d="M447.556,319.68c0-14.883,10.208-27.277,23.976-30.836c-2.568-0.663-5.214-1.131-7.992-1.131
		c-17.661,0-31.967,14.305-31.967,31.967c0,17.661,14.306,31.967,31.967,31.967c2.778,0,5.424-0.469,7.992-1.132
		C457.764,346.956,447.556,334.562,447.556,319.68z"/>
</g>
<path style="fill:#FFCE54;" d="M463.539,431.563c0,26.449-21.501,47.95-47.95,47.95c-26.535,0-47.95-21.501-47.95-47.95
	s21.415-47.95,47.95-47.95C442.038,383.613,463.539,405.114,463.539,431.563z"/>
<g style="opacity:0.4;">
	<path style="fill:#FFFFFF;" d="M383.622,431.563c0-23.726,17.247-43.416,39.95-47.232c-2.606-0.437-5.26-0.718-7.983-0.718
		c-26.535,0-47.95,21.501-47.95,47.95s21.415,47.95,47.95,47.95c2.724,0,5.377-0.281,7.983-0.718
		C400.869,474.979,383.622,455.289,383.622,431.563z"/>
</g>
<polygon style="fill:#4FC1E9;" points="280.291,135.869 281.571,185.817 47.009,185.817 48.531,135.869 "/>
<g style="opacity:0.2;">
	<polygon points="280.291,135.869 272.3,135.869 273.579,185.817 281.571,185.817 	"/>
</g>
<g style="opacity:0.2;">
	<polygon points="48.531,135.869 47.009,185.817 55.001,185.817 56.523,135.869 	"/>
</g>
<path style="fill:#CCD1D9;" d="M27.108,463.53h273.483c12.627,0,22.772-9.989,23.093-22.453v22.453
	c0.477,13.189-9.911,23.976-23.093,23.976H27.108c-13.182,0-23.569-10.786-23.093-23.976v-22.453
	C4.335,453.541,14.402,463.53,27.108,463.53z"/>
<g>
	<polygon style="fill:#F5F7FA;" points="221.071,327.671 221.391,367.63 173.839,367.63 173.839,327.671 	"/>
	<polygon style="fill:#F5F7FA;" points="221.469,383.613 221.789,423.572 173.839,423.572 173.839,383.613 	"/>
</g>
<polygon style="fill:#ED5565;" points="285.566,271.728 289.719,423.572 237.772,423.572 236.734,271.728 "/>
<polygon style="fill:#656D78;" points="284.045,215.787 285.247,255.745 236.657,255.745 236.337,215.787 "/>
<polygon style="fill:#F5F7FA;" points="220.751,271.728 220.993,311.687 173.839,311.687 173.839,271.728 "/>
<g>
	<polygon style="fill:#656D78;" points="220.353,216.036 220.673,255.995 173.839,255.995 173.839,216.036 	"/>
	<polygon style="fill:#656D78;" points="157.855,216.036 157.855,255.995 111.505,255.995 112.941,216.036 	"/>
	<polygon style="fill:#656D78;" points="96.957,215.787 95.521,255.745 46.931,255.745 49.249,215.787 	"/>
</g>
<g>
	<polygon style="fill:#F5F7FA;" points="157.855,271.728 157.855,311.687 109.663,311.687 111.107,271.728 	"/>
	<polygon style="fill:#F5F7FA;" points="95.123,271.728 93.68,311.687 43.974,311.687 46.291,271.728 	"/>
	<polygon style="fill:#F5F7FA;" points="157.855,327.671 157.855,367.63 107.751,367.63 109.187,327.671 	"/>
	<polygon style="fill:#F5F7FA;" points="93.203,327.671 91.767,367.63 40.937,367.63 43.255,327.671 	"/>
	<path style="fill:#F5F7FA;" d="M91.362,383.613l-1.436,39.717c0,0.086-51.946,0.242-51.946,0.242l2.318-39.959L91.362,383.613
		L91.362,383.613z"/>
	<polygon style="fill:#F5F7FA;" points="157.855,383.613 157.855,423.572 105.909,423.572 107.345,383.613 	"/>
</g>
<path style="fill:#E6E9ED;" d="M237.772,423.572h51.946l-4.152-151.844h-48.832L237.772,423.572z M285.247,255.745l-1.202-39.958
	h-47.708l0.32,39.958H285.247z M37.979,423.572c0,0,51.946-0.156,51.946-0.242l1.436-39.717H40.297L37.979,423.572z M91.767,367.63
	l1.436-39.959H43.255l-2.318,39.959H91.767z M93.68,311.687l1.444-39.959H46.291l-2.317,39.959L93.68,311.687L93.68,311.687z
	 M95.521,255.745l1.436-39.958H49.249l-2.318,39.958H95.521z M157.855,255.745v-39.958H112.94l-1.435,39.958H157.855z
	 M157.855,311.687v-39.959h-46.749l-1.444,39.959L157.855,311.687L157.855,311.687z M157.855,367.63v-39.959h-48.668l-1.436,39.959
	H157.855z M157.855,423.572v-39.959h-50.51l-1.436,39.959L157.855,423.572L157.855,423.572z M220.673,255.745l-0.32-39.958h-46.515
	v39.958H220.673z M220.993,311.687l-0.242-39.959h-46.912v39.959L220.993,311.687L220.993,311.687z M221.391,367.63l-0.32-39.959
	h-47.232v39.959H221.391z M221.469,383.613h-47.63v39.959h47.95L221.469,383.613z M323.683,439.556c0,0.476,0,1.038,0,1.521
	c-0.32,12.464-10.466,22.453-23.093,22.453H27.108c-12.706,0-22.773-9.989-23.093-22.453c0-0.483,0-1.046,0-1.521l15.983-311.678
	c0.476-13.186,11.668-23.975,24.857-23.975h237.988c13.189,0,24.381,10.79,24.856,23.975l10.786,209.706L323.683,439.556z
	 M281.571,185.817l-1.28-49.948H48.531l-1.522,49.948H281.571z"/>
<g style="opacity:0.2;">
	<polygon points="95.81,247.742 47.391,247.742 46.931,255.745 95.521,255.745 	"/>
</g>
<g style="opacity:0.2;">
	<polygon points="157.855,247.742 111.794,247.742 111.505,255.745 157.855,255.745 	"/>
</g>
<g style="opacity:0.2;">
	<polygon style="fill:#FFFFFF;" points="96.957,215.787 49.249,215.787 48.781,223.789 96.669,223.789 	"/>
</g>
<g style="opacity:0.2;">
	<polygon points="93.969,303.681 44.433,303.681 43.974,311.687 93.68,311.687 	"/>
</g>
<g style="opacity:0.2;">
	<polygon points="92.057,359.622 41.398,359.622 40.937,367.63 91.767,367.63 	"/>
</g>
<g style="opacity:0.2;">
	<polygon points="90.207,415.564 38.448,415.564 37.979,423.572 89.926,423.33 	"/>
</g>
<g style="opacity:0.2;">
	<polygon points="157.855,415.564 106.198,415.564 105.909,423.572 157.855,423.33 	"/>
</g>
<g style="opacity:0.2;">
	<polygon points="221.726,415.564 173.839,415.564 173.839,423.572 221.789,423.572 	"/>
</g>
<g style="opacity:0.2;">
	<polygon points="157.855,359.622 108.04,359.622 107.751,367.63 157.855,367.63 	"/>
</g>
<g style="opacity:0.2;">
	<polygon points="221.329,359.622 173.839,359.622 173.839,367.63 221.391,367.63 	"/>
</g>
<g style="opacity:0.2;">
	<polygon points="157.855,303.681 109.952,303.681 109.663,311.687 157.855,311.687 	"/>
</g>
<g style="opacity:0.2;">
	<polygon points="220.993,303.681 173.839,303.681 173.722,311.687 220.993,311.687 	"/>
</g>
<g style="opacity:0.2;">
	<polygon style="fill:#FFFFFF;" points="157.855,215.787 112.941,215.787 112.652,224.039 157.855,224.039 	"/>
</g>
<g style="opacity:0.2;">
	<polygon points="220.587,247.742 173.839,247.742 173.839,255.745 220.673,255.745 	"/>
</g>
<g style="opacity:0.2;">
	<polygon style="fill:#FFFFFF;" points="220.353,215.787 173.839,215.787 173.839,224.039 220.416,224.039 	"/>
</g>
<g style="opacity:0.2;">
	<polygon points="285.005,247.742 236.337,247.742 236.657,255.745 285.247,255.745 	"/>
</g>
<g style="opacity:0.2;">
	<polygon style="fill:#FFFFFF;" points="284.045,215.787 236.337,215.787 236.399,224.039 284.295,224.039 	"/>
</g>
<g style="opacity:0.2;">
	<polygon style="fill:#FFFFFF;" points="285.566,271.728 236.734,271.728 236.789,279.986 285.793,279.986 	"/>
</g>
<g>
	<path style="fill:#3A3847;" d="M339.667,317.838c-1.022,0-2.044-0.391-2.825-1.171c-1.561-1.562-1.561-4.09,0-5.65l131.411-131.412
		c-4.37-6.673-4.378-15.398-0.008-22.028L365.914,55.245c-6.619,4.37-15.352,4.366-22.032-0.012l-35.433,35.506
		c-1.561,1.569-4.089,1.562-5.65,0.008c-1.561-1.561-1.561-4.089,0-5.65l37.961-38.038c1.561-1.558,4.074-1.562,5.635-0.023
		c4.706,4.655,12.339,4.667,16.982,0.02c1.561-1.562,4.09-1.562,5.65,0l107.404,107.408c1.562,1.561,1.562,4.089,0,5.65
		c-4.644,4.647-4.636,12.265,0.016,16.982c1.546,1.561,1.538,4.078-0.016,5.631l-133.939,133.94
		C341.712,317.447,340.689,317.838,339.667,317.838z"/>
	<path style="fill:#3A3847;" d="M339.667,340.455c-1.022,0-2.044-0.391-2.825-1.171c-1.561-1.562-1.561-4.09,0-5.65l165.001-165.08
		L354.933,21.643l-69.101,69.1c-1.561,1.562-4.089,1.562-5.65,0c-1.561-1.561-1.561-4.089,0-5.65l71.926-71.925
		c1.561-1.561,4.09-1.561,5.65,0l152.561,152.561c1.562,1.561,1.562,4.089,0,5.65L342.492,339.284
		C341.712,340.064,340.689,340.455,339.667,340.455z"/>
	<path style="fill:#3A3847;" d="M354.933,234.728c-1.022,0-2.045-0.391-2.825-1.167c-1.561-1.561-1.561-4.09,0-5.654l67.766-67.852
		c1.561-1.561,4.09-1.557,5.65-0.004c1.561,1.561,1.561,4.089,0,5.654l-67.766,67.852
		C356.977,234.337,355.955,234.728,354.933,234.728z"/>
	<path style="fill:#3A3847;" d="M343.585,212.111c-1.022,0-2.045-0.391-2.825-1.171l-16.303-16.304c-1.562-1.561-1.562-4.089,0-5.65
		c1.561-1.561,4.089-1.561,5.65,0l16.303,16.304c1.561,1.561,1.561,4.089,0,5.65C345.63,211.72,344.607,212.111,343.585,212.111z"/>
	<path style="fill:#3A3847;" d="M360.567,190.235c-4.276,0-8.304-1.674-11.34-4.71l-11.27-11.266
		c-6.251-6.251-6.251-16.425,0-22.676c6.126-6.018,16.608-5.986,22.594,0l11.348,11.352c6.181,6.173,6.188,16.295,0.023,22.566
		C368.863,188.561,364.836,190.235,360.567,190.235z M349.29,154.931c-2.154,0-4.175,0.828-5.705,2.33
		c-3.106,3.11-3.106,8.21,0.023,11.348l11.27,11.266c3.052,3.04,8.296,3.052,11.371,0c3.075-3.13,3.091-8.203,0-11.289
		l-11.348-11.352C353.419,155.751,351.421,154.931,349.29,154.931z"/>
	<path style="fill:#3A3847;" d="M388.843,161.944c-4.269,0-8.288-1.674-11.324-4.71l-11.27-11.266
		c-3.052-3.056-4.722-7.103-4.706-11.398c0.016-4.253,1.701-8.237,4.729-11.219c5.885-6.006,16.491-6.061,22.57,0.023l11.27,11.27
		c3.052,3.051,4.722,7.102,4.706,11.395c-0.016,4.257-1.701,8.241-4.729,11.219C397.139,160.262,393.127,161.944,388.843,161.944z
		 M377.518,126.66c-2.122,0-4.112,0.832-5.596,2.342c-1.545,1.521-2.38,3.496-2.388,5.604c-0.008,2.15,0.827,4.175,2.364,5.713
		l11.27,11.266c3.06,3.044,8.304,3.052,11.27,0.023c1.546-1.522,2.381-3.497,2.389-5.604c0.008-2.146-0.827-4.176-2.365-5.709
		l-11.27-11.27C381.671,127.499,379.649,126.66,377.518,126.66z"/>
	<path style="fill:#3A3847;" d="M337.989,217.785c-1.015,0-2.029-0.383-2.81-1.151c-1.568-1.549-1.584-4.078-0.039-5.65
		l11.293-11.367c1.561-1.561,4.09-1.561,5.65,0c1.561,1.561,1.561,4.09,0,5.65l-11.246,11.328
		C340.05,217.386,339.019,217.785,337.989,217.785z"/>
	<path style="fill:#3A3847;" d="M300.591,467.526H27.108c-14.813,0-26.707-11.574-27.089-26.348v-1.623L16.01,127.674
		c0.547-15.285,13.494-27.768,28.846-27.768h237.988c15.351,0,28.299,12.483,28.853,27.826l15.983,313.344
		C327.297,455.952,315.403,467.526,300.591,467.526z M44.855,107.898c-11.106,0-20.463,9.026-20.861,20.124L8.003,439.758
		l0.008,1.319c0.265,10.302,8.655,18.458,19.097,18.458h273.483c10.442,0,18.832-8.156,19.097-18.56v-1.42l-15.975-311.471
		c-0.406-11.161-9.764-20.187-20.869-20.187H44.855V107.898z"/>
	<path style="fill:#3A3847;" d="M300.591,491.502H27.108c-7.461,0-14.399-2.927-19.535-8.25c-5.143-5.33-7.82-12.385-7.555-19.861
		c0.078-2.209,2.037-3.685,4.137-3.855c2.208,0.085,3.934,1.936,3.855,4.136c-0.195,5.292,1.693,10.278,5.314,14.032
		c3.613,3.746,8.507,5.807,13.783,5.807H300.59c5.275,0,10.169-2.061,13.782-5.807c3.621-3.754,5.51-8.74,5.314-14.032
		c-0.078-2.2,1.647-4.051,3.855-4.136c2.201,0.023,4.051,1.646,4.137,3.855c0.266,7.477-2.412,14.531-7.555,19.861
		C314.99,488.575,308.052,491.502,300.591,491.502z"/>
	<path style="fill:#3A3847;" d="M4.015,467.526c-2.208,0-3.996-1.787-3.996-3.996v-22.453c0-2.209,1.788-3.996,3.996-3.996
		c2.209,0,3.996,1.787,3.996,3.996v22.453C8.011,465.739,6.224,467.526,4.015,467.526z"/>
	<path style="fill:#3A3847;" d="M323.683,467.526c-2.209,0-3.996-1.787-3.996-3.996v-22.453c0-2.209,1.787-3.996,3.996-3.996
		s3.996,1.787,3.996,3.996v22.453C327.68,465.739,325.892,467.526,323.683,467.526z"/>
	<path style="fill:#3A3847;" d="M220.673,259.741h-46.834c-2.208,0-3.996-1.787-3.996-3.996v-39.958
		c0-2.209,1.788-3.996,3.996-3.996h46.515c2.193,0,3.98,1.768,3.996,3.965l0.32,39.958c0.008,1.065-0.406,2.088-1.163,2.845
		C222.757,259.316,221.734,259.741,220.673,259.741z M177.835,251.749h38.812l-0.258-31.967h-38.554V251.749z"/>
	<path style="fill:#3A3847;" d="M285.247,259.741h-48.59c-2.193,0-3.98-1.768-3.996-3.964l-0.32-39.959
		c-0.008-1.065,0.406-2.088,1.163-2.845c0.749-0.757,1.764-1.183,2.833-1.183h47.708c2.162,0,3.926,1.717,3.996,3.875l1.202,39.958
		c0.031,1.081-0.375,2.127-1.132,2.903C287.362,259.305,286.324,259.741,285.247,259.741z M240.621,251.749h40.505l-0.96-31.967
		h-39.802L240.621,251.749z"/>
	<path style="fill:#3A3847;" d="M95.521,259.741h-48.59c-1.1,0-2.154-0.452-2.903-1.253c-0.757-0.799-1.147-1.877-1.085-2.973
		l2.317-39.959c0.125-2.115,1.873-3.766,3.988-3.766h47.708c1.084,0,2.123,0.441,2.872,1.222c0.757,0.78,1.163,1.834,1.124,2.919
		l-1.436,39.958C99.439,258.04,97.676,259.741,95.521,259.741z M51.169,251.749h40.497l1.147-31.967H53.018L51.169,251.749z"/>
	<path style="fill:#3A3847;" d="M157.855,259.741h-46.35c-1.085,0-2.123-0.44-2.872-1.222c-0.757-0.78-1.163-1.834-1.124-2.919
		l1.437-39.958c0.078-2.15,1.842-3.852,3.996-3.852h44.915c2.209,0,3.996,1.787,3.996,3.996v39.959
		C161.851,257.954,160.064,259.741,157.855,259.741z M115.649,251.749h38.21v-31.967h-37.063L115.649,251.749z"/>
	<path style="fill:#3A3847;" d="M91.767,371.626h-50.83c-1.101,0-2.154-0.453-2.903-1.257c-0.757-0.796-1.147-1.873-1.085-2.974
		l2.318-39.958c0.125-2.107,1.873-3.762,3.988-3.762h49.948c1.084,0,2.123,0.437,2.872,1.225c0.757,0.78,1.163,1.826,1.124,2.911
		l-1.436,39.959C95.685,369.924,93.922,371.626,91.767,371.626z M45.175,363.634h42.737l1.147-31.967H47.025L45.175,363.634z"/>
	<path style="fill:#3A3847;" d="M221.391,371.626h-47.553c-2.208,0-3.996-1.788-3.996-3.996v-39.959
		c0-2.208,1.788-3.995,3.996-3.995h47.232c2.193,0,3.98,1.771,3.996,3.964l0.32,39.959c0.008,1.062-0.406,2.092-1.163,2.849
		C223.475,371.196,222.46,371.626,221.391,371.626z M177.835,363.634h39.529l-0.258-31.967h-39.271V363.634z"/>
	<path style="fill:#3A3847;" d="M157.855,371.626h-50.104c-1.085,0-2.123-0.438-2.872-1.226c-0.757-0.78-1.163-1.826-1.124-2.911
		l1.437-39.958c0.078-2.154,1.842-3.855,3.996-3.855h48.668c2.209,0,3.996,1.787,3.996,3.995v39.959
		C161.851,369.838,160.064,371.626,157.855,371.626z M111.895,363.634h41.964v-31.967h-40.817L111.895,363.634z"/>
	<path style="fill:#3A3847;" d="M37.979,427.567c-1.101,0-2.146-0.452-2.903-1.248c-0.757-0.804-1.147-1.881-1.085-2.981
		l2.318-39.959c0.125-2.107,1.873-3.762,3.988-3.762h51.064c1.084,0,2.123,0.445,2.88,1.226c0.749,0.78,1.155,1.834,1.116,2.919
		l-1.436,39.717c0,3.918,0,3.918-55.927,4.089C37.987,427.567,37.987,427.567,37.979,427.567z M44.067,387.609l-1.85,31.951
		c15.757-0.047,35.737-0.125,43.853-0.18l1.147-31.771H44.067z"/>
	<path style="fill:#3A3847;" d="M289.719,427.567h-51.946c-2.193,0-3.98-1.771-3.996-3.964l-1.038-151.844
		c-0.008-1.068,0.414-2.091,1.163-2.848c0.75-0.758,1.772-1.179,2.833-1.179h48.832c2.162,0,3.934,1.725,3.996,3.887l4.152,151.843
		c0.031,1.076-0.383,2.123-1.132,2.896S290.796,427.567,289.719,427.567z M241.745,419.576h43.868l-3.933-143.852h-40.919
		L241.745,419.576z"/>
	<path style="fill:#3A3847;" d="M221.789,427.567h-47.95c-2.208,0-3.996-1.787-3.996-3.995v-39.959c0-2.209,1.788-3.996,3.996-3.996
		h47.63c2.193,0,3.98,1.771,3.996,3.965l0.32,39.959c0.008,1.061-0.406,2.092-1.163,2.848
		C223.873,427.139,222.85,427.567,221.789,427.567z M177.835,419.576h39.927l-0.257-31.967h-39.67V419.576z"/>
	<path style="fill:#3A3847;" d="M157.855,427.567h-51.946c-1.085,0-2.123-0.437-2.872-1.225c-0.757-0.78-1.163-1.827-1.124-2.911
		l1.437-39.959c0.078-2.154,1.842-3.855,3.996-3.855h50.51c2.209,0,3.996,1.787,3.996,3.996v39.959
		C161.851,425.78,160.064,427.567,157.855,427.567z M110.054,419.576h43.806v-31.967h-42.659L110.054,419.576z"/>
	<path style="fill:#3A3847;" d="M220.993,315.683h-47.154c-2.208,0-3.996-1.787-3.996-3.996v-39.959
		c0-2.208,1.788-3.995,3.996-3.995h46.912c2.201,0,3.98,1.771,3.996,3.972l0.242,39.959c0.008,1.062-0.414,2.084-1.163,2.841
		S222.055,315.683,220.993,315.683z M177.835,307.691h39.139l-0.195-31.967h-38.944V307.691z"/>
	<path style="fill:#3A3847;" d="M93.68,315.683H43.974c-1.101,0-2.154-0.453-2.903-1.257c-0.757-0.796-1.147-1.873-1.085-2.974
		l2.318-39.958c0.125-2.107,1.873-3.762,3.988-3.762h48.833c1.084,0,2.123,0.444,2.88,1.226c0.749,0.78,1.155,1.834,1.116,2.91
		l-1.443,39.959C97.598,313.982,95.834,315.683,93.68,315.683z M48.211,307.691h41.613l1.155-31.967H50.06L48.211,307.691z"/>
	<path style="fill:#3A3847;" d="M157.855,315.683h-48.192c-1.085,0-2.123-0.445-2.88-1.226c-0.749-0.78-1.155-1.834-1.116-2.911
		l1.444-39.958c0.078-2.154,1.842-3.855,3.996-3.855h46.749c2.209,0,3.996,1.787,3.996,3.995v39.959
		C161.851,313.896,160.064,315.683,157.855,315.683z M113.807,307.691h40.052v-31.967h-38.897L113.807,307.691z"/>
	<path style="fill:#3A3847;" d="M281.571,189.813H47.009c-1.077,0-2.115-0.437-2.872-1.213c-0.75-0.777-1.155-1.823-1.124-2.903
		l1.521-49.948c0.07-2.158,1.834-3.875,3.996-3.875h231.76c2.17,0,3.941,1.729,3.996,3.895l1.279,49.948
		c0.023,1.077-0.382,2.119-1.131,2.892C283.678,189.376,282.648,189.813,281.571,189.813z M51.13,181.822h226.344l-1.077-41.957
		H52.41L51.13,181.822z"/>
	<path style="fill:#3A3847;" d="M463.539,355.642c-19.831,0-35.963-16.132-35.963-35.963s16.132-35.963,35.963-35.963
		s35.963,16.132,35.963,35.963S483.37,355.642,463.539,355.642z M463.539,291.708c-15.422,0-27.971,12.55-27.971,27.972
		c0,15.421,12.549,27.971,27.971,27.971s27.971-12.55,27.971-27.971C491.51,304.258,478.961,291.708,463.539,291.708z"/>
	<path style="fill:#3A3847;" d="M463.539,371.626c-19.831,0-35.963-16.132-35.963-35.963c0-2.209,1.787-3.996,3.996-3.996
		s3.996,1.787,3.996,3.996c0,15.421,12.549,27.971,27.971,27.971s27.971-12.55,27.971-27.971c0-2.209,1.787-3.996,3.996-3.996
		s3.996,1.787,3.996,3.996C499.502,355.494,483.37,371.626,463.539,371.626z"/>
	<path style="fill:#3A3847;" d="M431.572,339.658c-2.209,0-3.996-1.787-3.996-3.995V319.68c0-2.209,1.787-3.996,3.996-3.996
		s3.996,1.787,3.996,3.996v15.983C435.568,337.871,433.781,339.658,431.572,339.658z"/>
	<path style="fill:#3A3847;" d="M495.506,339.658c-2.209,0-3.996-1.787-3.996-3.995V319.68c0-2.209,1.787-3.996,3.996-3.996
		s3.996,1.787,3.996,3.996v15.983C499.502,337.871,497.715,339.658,495.506,339.658z"/>
	<path style="fill:#3A3847;" d="M463.539,331.667c-2.209,0-3.996-1.787-3.996-3.996v-15.983c0-2.209,1.787-3.996,3.996-3.996
		s3.996,1.787,3.996,3.996v15.983C467.535,329.88,465.748,331.667,463.539,331.667z"/>
	<path style="fill:#3A3847;" d="M415.589,483.51c-28.643,0-51.946-23.304-51.946-51.946c0-28.642,23.304-51.946,51.946-51.946
		c28.642,0,51.946,23.305,51.946,51.946C467.535,460.206,444.23,483.51,415.589,483.51z M415.589,387.609
		c-24.233,0-43.954,19.722-43.954,43.954c0,24.233,19.721,43.954,43.954,43.954c24.232,0,43.954-19.721,43.954-43.954
		C459.543,407.331,439.821,387.609,415.589,387.609z"/>
	<path style="fill:#3A3847;" d="M415.589,499.493c-28.643,0-51.946-23.304-51.946-51.946c0-2.209,1.787-3.996,3.996-3.996
		c2.208,0,3.996,1.787,3.996,3.996c0,24.232,19.721,43.955,43.954,43.955c24.232,0,43.954-19.723,43.954-43.955
		c0-2.209,1.787-3.996,3.996-3.996s3.996,1.787,3.996,3.996C467.535,476.189,444.23,499.493,415.589,499.493z"/>
	<path style="fill:#3A3847;" d="M415.589,451.543c-2.209,0-3.996-1.787-3.996-3.996V415.58c0-2.209,1.787-3.996,3.996-3.996
		c2.208,0,3.995,1.787,3.995,3.996v31.967C419.584,449.756,417.797,451.543,415.589,451.543z"/>
	<path style="fill:#3A3847;" d="M463.539,451.543c-2.209,0-3.996-1.787-3.996-3.996v-15.983c0-2.208,1.787-3.996,3.996-3.996
		s3.996,1.788,3.996,3.996v15.983C467.535,449.756,465.748,451.543,463.539,451.543z"/>
	<path style="fill:#3A3847;" d="M367.639,451.543c-2.209,0-3.996-1.787-3.996-3.996v-15.983c0-2.208,1.787-3.996,3.996-3.996
		c2.208,0,3.996,1.788,3.996,3.996v15.983C371.635,449.756,369.847,451.543,367.639,451.543z"/>
</g>
<g style="opacity:0.3;">
	<polygon points="289.5,415.564 237.718,415.564 237.772,423.572 289.969,423.572 	"/>
</g>
<g>
</g>
<g>
</g>
<g>
</g>
<g>
</g>
<g>
</g>
<g>
</g>
<g>
</g>
<g>
</g>
<g>
</g>
<g>
</g>
<g>
</g>
<g>
</g>
<g>
</g>
<g>
</g>
<g>
</g>
</svg>
