<?xml version="1.0" encoding="iso-8859-1"?>
<!-- Generator: Adobe Illustrator 19.0.0, SVG Export Plug-In . SVG Version: 6.00 Build 0)  -->
<svg version="1.1" id="Capa_1" xmlns="http://www.w3.org/2000/svg" xmlns:xlink="http://www.w3.org/1999/xlink" x="0px" y="0px"
	 viewBox="0 0 511.999 511.999" style="enable-background:new 0 0 511.999 511.999;" xml:space="preserve">
<path style="fill:#92D8FF;" d="M435.194,82.103H147.419c-37.175,0-67.311,30.136-67.311,67.311V437.19
	c0,37.175,30.136,67.311,67.311,67.311h287.776c37.174,0,67.311-30.136,67.311-67.311V149.414
	C502.505,112.239,472.369,82.103,435.194,82.103z M208.163,188.435c-15.726,0-28.474-12.748-28.474-28.474
	s12.748-28.474,28.474-28.474c15.726,0,28.474,12.748,28.474,28.474C236.637,175.686,223.889,188.435,208.163,188.435z
	 M374.45,188.435c-15.726,0-28.474-12.748-28.474-28.474s12.748-28.474,28.474-28.474s28.474,12.748,28.474,28.474
	C402.924,175.686,390.176,188.435,374.45,188.435z"/>
<path style="fill:#BF4C4C;" d="M435.194,82.103H147.419c-37.174,0-67.311,30.136-67.311,67.311v80.023h422.397v-80.023
	C502.505,112.239,472.369,82.103,435.194,82.103z M208.163,188.435c-15.726,0-28.474-12.748-28.474-28.474
	s12.748-28.474,28.474-28.474c15.726,0,28.474,12.748,28.474,28.474C236.637,175.686,223.889,188.435,208.163,188.435z
	 M374.45,188.435c-15.726,0-28.474-12.748-28.474-28.474s12.748-28.474,28.474-28.474s28.474,12.748,28.474,28.474
	C402.924,175.686,390.176,188.435,374.45,188.435z"/>
<path style="fill:#D7F3FF;" d="M364.579,82.103H76.804c-37.175,0-67.311,30.136-67.311,67.311V437.19
	c0,37.175,30.136,67.311,67.311,67.311h287.775c37.174,0,67.311-30.136,67.311-67.311V149.414
	C431.89,112.239,401.754,82.103,364.579,82.103z M137.548,188.435c-15.726,0-28.474-12.748-28.474-28.474
	s12.748-28.474,28.474-28.474c15.726,0,28.474,12.748,28.474,28.474C166.022,175.686,153.273,188.435,137.548,188.435z
	 M303.835,188.435c-15.726,0-28.474-12.748-28.474-28.474s12.748-28.474,28.474-28.474s28.474,12.748,28.474,28.474
	C332.309,175.686,319.561,188.435,303.835,188.435z"/>
<path style="fill:#BDEBFF;" d="M364.579,82.103H245.827c10.204,60.398,45.353,300.402-16.961,422.397h135.713
	c37.175,0,67.311-30.136,67.311-67.311V149.414C431.89,112.239,401.754,82.103,364.579,82.103z M303.835,188.435
	c-15.726,0-28.474-12.748-28.474-28.474s12.748-28.474,28.474-28.474s28.474,12.748,28.474,28.474
	C332.309,175.686,319.561,188.435,303.835,188.435z"/>
<g>
	<path style="fill:#787680;" d="M191.814,290.508c-5.568-2.338-11.995-1.112-16.31,3.116l-46.185,45.262
		c-5.917,5.798-6.013,15.295-0.214,21.212c5.798,5.917,15.295,6.012,21.212,0.214l20.686-20.272v88.998c0,8.284,6.716,15,15,15
		s15-6.716,15-15v-124.7C201.004,298.298,197.382,292.848,191.814,290.508z"/>
	<path style="fill:#787680;" d="M301.563,289.337c-8.284,0-15,6.716-15,15v47.35h-22.275v-47.35c0-8.284-6.716-15-15-15
		s-15,6.716-15,15v62.35c0,8.284,6.716,15,15,15h37.275v47.35c0,8.284,6.716,15,15,15s15-6.716,15-15v-124.7
		C316.563,296.053,309.848,289.337,301.563,289.337z"/>
</g>
<path style="fill:#FF737D;" d="M364.579,82.103H76.804c-37.174,0-67.311,30.136-67.311,67.311v80.023H431.89v-80.023
	C431.89,112.239,401.754,82.103,364.579,82.103z M137.548,188.435c-15.726,0-28.474-12.748-28.474-28.474
	s12.748-28.474,28.474-28.474c15.726,0,28.474,12.748,28.474,28.474C166.022,175.686,153.273,188.435,137.548,188.435z
	 M303.835,188.435c-15.726,0-28.474-12.748-28.474-28.474s12.748-28.474,28.474-28.474s28.474,12.748,28.474,28.474
	C332.309,175.686,319.561,188.435,303.835,188.435z"/>
<path style="fill:#F46262;" d="M364.579,82.103H245.827c4.248,25.143,12.817,81.409,16.88,147.334h169.182v-80.023
	C431.89,112.239,401.754,82.103,364.579,82.103z M303.835,188.435c-15.726,0-28.474-12.748-28.474-28.474
	s12.748-28.474,28.474-28.474s28.474,12.748,28.474,28.474C332.309,175.686,319.561,188.435,303.835,188.435z"/>
<g>
	<path style="fill:#787680;" d="M166.022,159.961c0-3.912-0.785-7.631-2.212-11.023c-19.119-0.46-35.186-25.861-35.186-55.893
		c0-30.307,16.348-55.911,35.698-55.911c16.967,0,31.624,19.688,34.976,44.97h29.817c-1.715-17.86-7.598-34.493-17.017-47.682
		C199.878,17.312,182.464,7.5,164.321,7.5c-18.143,0-35.557,9.812-47.777,26.921C105.225,50.272,98.99,71.091,98.99,93.045
		s6.235,42.774,17.554,58.624c11.082,15.516,26.454,25.036,42.751,26.673C163.496,173.382,166.022,166.97,166.022,159.961z"/>
	<path style="fill:#787680;" d="M330.545,37.133c16.967,0,31.623,19.688,34.976,44.97h29.821
		c-1.713-17.861-7.602-34.493-17.022-47.682C366.103,17.312,348.688,7.5,330.545,7.5s-35.557,9.812-47.777,26.921
		c-11.321,15.851-17.556,36.67-17.556,58.624s6.235,42.774,17.556,58.624c11.098,15.539,26.488,25.06,42.811,26.676
		c4.2-4.959,6.729-11.375,6.729-18.384c0-3.912-0.789-7.64-2.217-11.033c-19.144-0.414-35.246-25.823-35.246-55.883
		C294.846,62.738,311.194,37.133,330.545,37.133z"/>
</g>
<path d="M435.194,74.603h-63.358c-5.517-26.415-22.207-44.97-41.291-44.97c-23.82,0-43.199,28.446-43.199,63.411
	c0,31.683,16.171,58.263,37.039,62.714c1.33,5.691-0.568,11.438-2.286,14.478c-12.684-2.505-24.359-10.51-33.228-22.927
	c-10.421-14.59-16.159-33.862-16.159-54.266c0-20.403,5.738-39.674,16.159-54.264C299.666,23.667,314.855,15,330.546,15
	s30.879,8.667,41.672,23.78c3.823,5.353,7.05,11.396,9.59,17.962c1.496,3.862,5.837,5.785,9.701,4.288
	c3.863-1.495,5.783-5.838,4.289-9.701c-2.994-7.737-6.821-14.893-11.374-21.267C370.78,10.957,351.143,0,330.546,0
	s-40.235,10.957-53.881,30.062c-8.969,12.558-14.966,27.951-17.531,44.541h-23.405c-2.567-16.699-8.563-31.986-17.528-44.542
	C204.556,10.957,184.917,0,164.321,0c-18.703,0-36.428,8.854-49.907,24.929c-2.661,3.174-2.246,7.904,0.928,10.566
	c3.175,2.661,7.905,2.245,10.566-0.928C136.488,21.949,150.13,15,164.321,15c15.689,0,30.879,8.667,41.673,23.779
	c7.198,10.08,12.147,22.342,14.528,35.824h-14.909c-5.517-26.415-22.208-44.97-41.292-44.97c-23.819,0-43.198,28.446-43.198,63.411
	c0,31.637,16.143,58.218,36.974,62.712c1.722,6.375-0.566,11.432-2.28,14.471c-12.663-2.521-24.318-10.522-33.17-22.917
	c-10.419-14.59-16.157-33.862-16.157-54.266c0-12.619,2.256-25.136,6.522-36.198c1.491-3.865-0.434-8.206-4.298-9.697
	c-3.865-1.49-8.206,0.434-9.696,4.298c-2.811,7.287-4.863,15.103-6.109,23.155H76.804c-41.251,0-74.811,33.56-74.811,74.811v287.775
	c0,41.25,33.56,74.811,74.811,74.811h358.391c41.251,0,74.811-33.56,74.811-74.811V149.414
	C510.005,108.163,476.445,74.603,435.194,74.603z M495.005,149.414v72.523H439.39v-72.523c0-24.424-11.768-46.149-29.928-59.811
	h25.733C468.174,89.603,495.005,116.434,495.005,149.414z M330.546,44.633c10.875,0,21.382,12.622,25.882,29.97H304.64
	C309.049,57.359,319.279,44.633,330.546,44.633z M306.137,180.802c-9.954,0.261-20.908-7.089-22.854-16.655
	C290.033,171.454,297.77,177.077,306.137,180.802z M145.537,57.76c5.326-8.342,12.173-13.126,18.784-13.126
	c10.876,0,21.383,12.622,25.883,29.97h-51.762C140.049,68.363,142.45,62.595,145.537,57.76z M139.897,180.794
	c-11.541,0.726-21.001-7.125-22.915-16.732C123.745,171.404,131.504,177.054,139.897,180.794z M76.804,89.603h14.742
	c-0.033,1.146-2.522,30.586,12.777,56.571c-1.802,4.35-2.749,9.042-2.749,13.786c0,19.836,16.138,35.974,35.975,35.974
	c19.836,0,35.974-16.138,35.974-35.974c0-17.875-13.107-32.741-30.213-35.507c-10.508-17.376-7.149-33.706-7.097-34.851h121.563
	c-0.032,1.145-2.859,34.833,12.813,56.645c-1.784,4.328-2.726,8.982-2.726,13.713c0,19.836,16.138,35.974,35.974,35.974
	c19.837,0,35.975-16.138,35.975-35.974c0-17.899-13.142-32.783-30.284-35.519c-9.676-14.449-7.144-33.698-7.092-34.838h62.145
	c32.979,0,59.811,26.831,59.811,59.811v72.523H16.993v-72.523C16.993,116.434,43.824,89.603,76.804,89.603z M76.804,497
	c-32.979,0-59.811-26.831-59.811-59.811V236.937h407.396v200.252c0,32.979-26.831,59.811-59.811,59.811H76.804z M435.194,497
	h-25.733c18.16-13.662,29.928-35.387,29.928-59.811V236.937h55.615v200.252C495.005,470.169,468.174,497,435.194,497z"/>
<path d="M194.718,283.593c-8.372-3.516-17.977-1.682-24.463,4.674l-46.184,45.261c-4.293,4.207-6.69,9.833-6.751,15.843
	s2.223,11.683,6.429,15.975c4.207,4.293,9.833,6.69,15.843,6.751c5.996,0.053,11.684-2.222,15.976-6.43l7.937-7.777v71.146
	c0,12.407,10.094,22.5,22.5,22.5s22.5-10.093,22.5-22.5v-15.703c0-4.142-3.357-7.5-7.5-7.5s-7.5,3.358-7.5,7.5v15.703
	c0,4.136-3.364,7.5-7.5,7.5c-4.136,0-7.5-3.364-7.5-7.5V340.04c0-3.02-1.811-5.745-4.595-6.915
	c-2.787-1.169-5.998-0.555-8.154,1.558l-20.686,20.271c-1.413,1.384-6.264,4.225-10.606-0.106
	c-4.342-4.331-1.324-9.204,0.106-10.606l46.185-45.261c2.162-2.117,5.362-2.731,8.155-1.558c2.791,1.173,4.595,3.887,4.595,6.915
	v77.571c0,4.142,3.357,7.5,7.5,7.5s7.5-3.358,7.5-7.5v-77.571C208.504,295.255,203.094,287.112,194.718,283.593z"/>
<path d="M301.563,281.837c-12.406,0-22.5,10.093-22.5,22.5v39.85h-7.275v-39.85c0-12.407-10.094-22.5-22.5-22.5
	s-22.5,10.093-22.5,22.5v62.35c0,12.407,10.094,22.5,22.5,22.5h29.775v39.85c0,12.407,10.094,22.5,22.5,22.5s22.5-10.093,22.5-22.5
	v-124.7C324.063,291.931,313.97,281.837,301.563,281.837z M309.063,429.037c0,4.136-3.364,7.5-7.5,7.5s-7.5-3.364-7.5-7.5v-47.35
	c0-4.142-3.357-7.5-7.5-7.5h-37.275c-4.136,0-7.5-3.364-7.5-7.5v-62.35c0-4.136,3.364-7.5,7.5-7.5c4.136,0,7.5,3.364,7.5,7.5v47.35
	c0,4.142,3.357,7.5,7.5,7.5h22.275c4.143,0,7.5-3.358,7.5-7.5v-47.35c0-4.136,3.364-7.5,7.5-7.5s7.5,3.364,7.5,7.5V429.037z"/>
<g>
</g>
<g>
</g>
<g>
</g>
<g>
</g>
<g>
</g>
<g>
</g>
<g>
</g>
<g>
</g>
<g>
</g>
<g>
</g>
<g>
</g>
<g>
</g>
<g>
</g>
<g>
</g>
<g>
</g>
</svg>
