<?xml version="1.0" encoding="iso-8859-1"?>
<!-- Generator: Adobe Illustrator 19.0.0, SVG Export Plug-In . SVG Version: 6.00 Build 0)  -->
<svg xmlns="http://www.w3.org/2000/svg" xmlns:xlink="http://www.w3.org/1999/xlink" version="1.1" id="Layer_1" x="0px" y="0px" viewBox="0 0 512 512" style="enable-background:new 0 0 512 512;" xml:space="preserve" width="512" height="512">
<g id="XMLID_1807_">
	<g id="XMLID_832_">
		<g id="XMLID_1006_">
			<circle id="XMLID_1022_" style="fill:#5DDEF5;" cx="256" cy="256" r="246"/>
			<circle id="XMLID_1021_" style="fill:#FFFFFF;" cx="256" cy="256" r="200.494"/>
			<circle id="XMLID_1020_" style="fill:#FF7480;" cx="256" cy="256" r="28"/>
		</g>
		<g id="XMLID_1140_">
			<circle id="XMLID_1153_" style="fill:#FFBE52;" cx="403" cy="403" r="99"/>
		</g>
	</g>
	<g id="XMLID_1721_">
		<g id="XMLID_1722_">
			<g id="XMLID_1732_">
				<path id="XMLID_1793_" d="M496.047,345.15C506.632,316.657,512,286.662,512,256c0-68.38-26.628-132.667-74.981-181.019      C388.667,26.628,324.38,0,256,0S123.333,26.628,74.981,74.981C26.628,123.333,0,187.62,0,256s26.628,132.667,74.981,181.02      C123.333,485.371,187.62,512,256,512c30.346,0,60.048-5.26,88.283-15.633c0.505-0.186,0.979-0.418,1.435-0.673      C362.373,506.025,382.001,512,403,512c60.103,0,109-48.897,109-109c0-20.956-5.95-40.546-16.241-57.18      C495.859,345.6,495.961,345.381,496.047,345.15z M256,492C125.869,492,20,386.131,20,256S125.869,20,256,20s236,105.869,236,236      c0,24.312-3.667,48.158-10.892,71.057c-6.424-6.605-13.67-12.405-21.58-17.222c19.107-72.408-1.547-149.544-54.682-202.68      c-34.495-34.495-80.19-56.048-128.669-60.69c-47.831-4.582-96.127,7.394-135.999,33.717c-4.609,3.042-5.879,9.246-2.836,13.854      c3.042,4.609,9.246,5.879,13.854,2.836c75.069-49.557,175.796-39.286,239.506,24.425      c47.151,47.15,66.017,115.183,50.435,179.595C429.262,296.441,416.411,294,403,294c-60.103,0-109,48.897-109,109      c0,13.419,2.444,26.276,6.899,38.159c-14.856,3.593-29.902,5.358-44.848,5.357c-49.842-0.002-98.503-19.56-134.755-55.812      C57.59,326.999,47.315,226.277,96.862,151.211c3.042-4.609,1.772-10.813-2.837-13.854c-4.609-3.044-10.813-1.772-13.854,2.837      c-26.317,39.872-38.288,88.168-33.707,135.992c4.644,48.476,26.197,94.168,60.689,128.661      c40.063,40.063,93.817,61.674,148.895,61.67c17.928-0.001,36.004-2.3,53.784-6.991c4.818,7.912,10.621,15.161,17.228,21.586      C304.16,488.338,280.308,492,256,492z M403,492c-49.075,0-89-39.925-89-89s39.925-89,89-89s89,39.925,89,89S452.075,492,403,492      z"/>
				<path id="XMLID_1792_" d="M113.61,124.843c2.571,0,5.142-0.985,7.096-2.954l0.213-0.214l0.061-0.061      c3.91-3.9,3.888-10.202-0.013-14.112c-3.9-3.91-10.261-3.888-14.172,0.012l-0.282,0.283c-3.891,3.919-3.869,10.251,0.05,14.142      C108.515,123.875,111.063,124.843,113.61,124.843z"/>
				<path id="XMLID_1767_" d="M404.876,266.186H419c5.523,0,10-4.477,10-10s-4.477-10-10-10h-14.124c-5.523,0-10,4.477-10,10      S399.354,266.186,404.876,266.186z"/>
				<path id="XMLID_1766_" d="M117.124,255.814c0-5.523-4.477-10-10-10H93c-5.523,0-10,4.477-10,10s4.477,10,10,10h14.124      C112.646,265.814,117.124,261.337,117.124,255.814z"/>
				<path id="XMLID_1764_" d="M256.186,117.124c5.523,0,10-4.477,10-10V93c0-5.523-4.477-10-10-10s-10,4.477-10,10v14.124      C246.186,112.646,250.663,117.124,256.186,117.124z"/>
				<path id="XMLID_1763_" d="M255.814,394.877c-5.523,0-10,4.478-10,10V419c0,5.522,4.477,10,10,10s10-4.478,10-10v-14.123      C265.814,399.354,261.337,394.877,255.814,394.877z"/>
				<path id="XMLID_1737_" d="M223.019,237.162C219.832,242.719,218,249.148,218,256c0,20.953,17.047,38,38,38s38-17.047,38-38      c0-6.852-1.832-13.281-5.019-18.838l79.091-79.091c3.905-3.905,3.905-10.237,0-14.143c-3.905-3.905-10.237-3.905-14.143,0      l-79.091,79.091C269.281,219.833,262.852,218,256,218s-13.281,1.833-18.838,5.019l-39.591-39.591      c-3.905-3.905-10.237-3.905-14.143,0s-3.905,10.237,0,14.143L223.019,237.162z M274,256c0,9.925-8.075,18-18,18s-18-8.075-18-18      c0-9.925,8.075-18,18-18S274,246.075,274,256z"/>
				<path id="XMLID_1736_" d="M122.935,358.101c0.942,1.229,1.9,2.445,2.872,3.642c17.601,21.689,40.64,38.781,66.629,49.428      c1.241,0.508,2.524,0.749,3.787,0.749c3.938,0,7.672-2.343,9.257-6.212c2.093-5.111-0.353-10.951-5.463-13.045      c-22.895-9.379-43.186-24.429-58.681-43.523c-0.855-1.054-1.697-2.121-2.525-3.202c-3.359-4.383-9.636-5.215-14.02-1.855      C120.406,347.44,119.575,353.717,122.935,358.101z"/>
				<path id="XMLID_1735_" d="M120.169,313.974l-0.324-0.767c-2.14-5.091-8.003-7.485-13.093-5.344      c-5.091,2.14-7.484,8.002-5.344,13.094l0.358,0.847c1.619,3.805,5.317,6.088,9.206,6.088c1.306,0,2.633-0.258,3.911-0.801      C119.965,324.929,122.332,319.056,120.169,313.974z"/>
				<path id="XMLID_1733_" d="M402.961,363.528c9.356,0,16.968,6.493,16.968,14.475c0,5.522,4.477,10,10,10s10-4.478,10-10      c0-15.778-11.429-29.104-26.968-33.182v-3.153c0-5.522-4.477-10-10-10s-10,4.478-10,10v3.153      c-15.54,4.078-26.968,17.405-26.968,33.182c0,19.01,16.584,34.476,36.968,34.476c9.356,0,16.968,6.493,16.968,14.475      s-7.612,14.475-16.968,14.475s-16.968-6.493-16.968-14.475c0-5.522-4.477-10-10-10s-10,4.478-10,10      c0,15.778,11.429,29.104,26.968,33.182v2.411c0,5.522,4.477,10,10,10s10-4.478,10-10v-2.411      c15.54-4.078,26.968-17.405,26.968-33.182c0-19.01-16.584-34.475-36.968-34.475c-9.356,0-16.968-6.494-16.968-14.476      S393.605,363.528,402.961,363.528z"/>
			</g>
		</g>
	</g>
</g>















</svg>
