<svg xmlns="http://www.w3.org/2000/svg" xmlns:xlink="http://www.w3.org/1999/xlink" height="50" width="50">
  <defs>
    <rect id="rect-1" opacity="1" x="0" y="0" width="50" height="50"/>
    <mask id="mask-2" maskUnits="userSpaceOnUse" maskContentUnits="userSpaceOnUse">
      <rect opacity="1" x="0" y="0" width="50" height="50" fill="Black"/>
      <use xlink:href="#rect-1" fill="White"/>
    </mask>
  </defs>
  <g opacity="1">
    <g/>
    <g mask="url(#mask-2)">
      <g opacity="1">
        <g opacity="1">
          <path fill="rgb(255,255,255)" fill-opacity="1" opacity="1" fill-rule="evenodd" d="M25 0C11.18723404255319 0 0 11.357352687057194 0 25.38016243303957C0 37.30775876965612 8.061702127659574 47.207102125453595 18.938297872340428 49.9978399861759C18.812765957446807 49.6803179540349 18.751063829787235 49.235355106272664 18.751063829787235 48.792552272334525L18.751063829787235 44.47684465180575L15.625531914893617 44.47684465180575C13.938297872340428 44.47684465180575 12.37446808510638 43.716519785726604 11.687234042553191 42.318990841541364C10.874468085106383 40.79618109555899 10.748936170212763 38.448246068774814 8.687234042553191 36.988076723691016C8.061702127659574 36.480473475030216 8.561702127659574 35.97287022636943 9.248936170212763 36.035510627267996C10.561702127659572 36.41567306030757 11.623404255319148 37.30559875583202 12.623404255319148 38.636167271470526C13.62340425531915 39.96889580093311 14.061702127659572 40.28641783307412 15.936170212765957 40.28641783307412C16.81063829787234 40.28641783307412 18.185106382978724 40.223777432175545 19.43617021276596 40.03153620183168C20.123404255319148 38.253844824606865 21.31063829787234 36.66839467772592 22.748936170212765 35.908069811646776C14.374468085106384 34.8928633143252 10.374468085106384 30.704596509417645 10.374468085106384 24.993519958527724C10.374468085106384 22.518144116122333 11.436170212765957 20.17020908933816 13.18723404255319 18.139796094694997C12.625531914893617 16.172023500950395 11.87446808510638 12.111197511664065 13.438297872340424 10.525747364783127C17.189361702127655 10.525747364783127 19.438297872340424 13.001123207188519 20 13.63400725764644C21.87446808510638 12.998963193364428 23.938297872340424 12.618800760324856 26.06170212765957 12.618800760324856C28.24893617021276 12.618800760324856 30.248936170212765 12.998963193364428 32.123404255319144 13.63400725764644C32.68510638297872 12.998963193364428 34.93617021276595 10.525747364783127 38.68510638297872 10.525747364783127C40.18510638297872 12.0485571107655 39.49787234042553 16.172023500950395 38.87234042553191 18.139796094694997C40.623404255319144 20.1075686884396 41.623404255319144 22.518144116122333 41.623404255319144 24.993519958527724C41.623404255319144 30.704596509417645 37.68510638297872 34.8928633143252 29.374468085106376 35.78062899602556C31.687234042553186 36.98591670986693 33.3127659574468 40.41169863487124 33.3127659574468 42.9497148781752L33.3127659574468 48.72991187143597C33.3127659574468 48.91999308795575 33.25106382978723 49.11007430447554 33.25106382978723 49.300155520995325C43 45.87437359599101 50 36.48479350267841 50 25.38016243303957C50 11.357352687057194 38.81276595744681 0 25 0L25 0Z"/>
        </g>
      </g>
    </g>
  </g>
</svg>