<svg xmlns="http://www.w3.org/2000/svg" xmlns:xlink="http://www.w3.org/1999/xlink" height="63" width="73">
  <defs>
    <rect id="rect-1" opacity="1" x="0" y="0" width="73" height="63"/>
    <mask id="mask-2" maskUnits="userSpaceOnUse" maskContentUnits="userSpaceOnUse">
      <rect opacity="1" x="0" y="0" width="73" height="63" fill="Black"/>
      <use xlink:href="#rect-1" fill="White"/>
    </mask>
    <path id="path-4" opacity="1" fill-rule="evenodd" d="M40.87423317696501 32.16811081565894L49.65973623727723 23.477890564884014L54.177994954009236 27.760927688480226L71.0587115484663 11.12536320842537C71.0587115484663 11.12536320842537 72.88421357721262 14.78922213915387 72.69030497395286 20.063875466365293C72.49639637069313 25.338528793576714 69.36436452969181 29.871409749382707 69.36436452969181 29.871409749382707L36.418728053520944 62.70802769695368L27.7587321797846 54.07988044797L45.32973830040906 36.5132209410464L40.87423317696501 32.16811081565894L40.87423317696501 32.16811081565894Z"/>
    <path id="path-6" opacity="1" fill-rule="evenodd" d="M22.98945908990094 14.663524310526576L31.712208556925212 6.035377061542897C31.712208556925212 6.035377061542897 24.683806108675437 -1.4133831534070396 13.513666503421339 1.4419749289904362C7.46980778328518 2.986931522877329 4.073285541211047 6.315074874169137 1.7787445585757435 11.87023922992035C0.28186691874698466 15.494232605785186 -0.39684141922839444 21.113098074850168 1.259581439378302 25.715103074800904C1.756777349477332 27.096452076371445 2.7003657619833477 29.049742481185948 3.5985987664362735 29.99555575172374C15.29738663250462 42.31403968431443 18.847721935406756 45.265514192371114 18.847721935406756 45.265514192371114L61.89668693093659 2.5592889599914717C61.89668693093659 2.5592889599914717 55.495820415566264 -0.5443611295710028 50.663793732394545 0.5108799008802387C50.02569180757852 0.6502316421757319 47.260771406608846 0.8562760281358037 42.56858019824973 4.669771020893953C39.23357276592046 7.380239026281496 35.94708352400106 10.977478004796353 32.31065575067048 14.540972144237934C25.45300674595967 21.261081429551066 18.847721935406756 27.82300069027147 18.847721935406756 27.82300069027147L13.513666505931484 22.17435752726777C13.513666505931484 22.17435752726777 12.754748085069783 20.932795495569152 12.635116199900263 19.50521845024404C12.507614548500774 17.98373084269517 13.0610772116945 16.104373094979564 14.517723998538594 14.663524310526583C15.738500034058848 13.455988150933939 17.94590335881299 12.783886612331425 19.538011461574147 12.987553262162846C21.62809753983561 13.25492256223556 22.989459092411085 14.663524310526583 22.989459092411085 14.663524310526583L22.98945908990094 14.663524310526576Z"/>
  </defs>
  <g opacity="1">
    <g/>
    <g mask="url(#mask-2)">
      <g opacity="1">
        <g opacity="1">
          <g opacity="1">
            <g opacity="1">
              <path fill="rgb(255,255,255)" fill-opacity="1" opacity="1" fill-rule="evenodd" d="M40.87423317696501 32.16811081565894L49.65973623727723 23.477890564884014L54.177994954009236 27.760927688480226L71.0587115484663 11.12536320842537C71.0587115484663 11.12536320842537 72.88421357721262 14.78922213915387 72.69030497395286 20.063875466365293C72.49639637069313 25.338528793576714 69.36436452969181 29.871409749382707 69.36436452969181 29.871409749382707L36.418728053520944 62.70802769695368L27.7587321797846 54.07988044797L45.32973830040906 36.5132209410464L40.87423317696501 32.16811081565894L40.87423317696501 32.16811081565894Z"/>
            </g>
            <g opacity="1">
              <use xlink:href="#path-4" fill="rgb(0,0,0)" fill-opacity="0"/>
              <use xlink:href="#path-4" fill-opacity="0" stroke="rgb(128,128,128)" stroke-opacity="1" stroke-width="1" stroke-linecap="butt" stroke-linejoin="miter"/>
            </g>
          </g>
          <g opacity="1">
            <g opacity="1">
              <path fill="rgb(255,255,255)" fill-opacity="1" opacity="1" fill-rule="evenodd" d="M22.98945908990094 14.663524310526576L31.712208556925212 6.035377061542897C31.712208556925212 6.035377061542897 24.683806108675437 -1.4133831534070396 13.513666503421339 1.4419749289904362C7.46980778328518 2.986931522877329 4.073285541211047 6.315074874169137 1.7787445585757435 11.87023922992035C0.28186691874698466 15.494232605785186 -0.39684141922839444 21.113098074850168 1.259581439378302 25.715103074800904C1.756777349477332 27.096452076371445 2.7003657619833477 29.049742481185948 3.5985987664362735 29.99555575172374C15.29738663250462 42.31403968431443 18.847721935406756 45.265514192371114 18.847721935406756 45.265514192371114L61.89668693093659 2.5592889599914717C61.89668693093659 2.5592889599914717 55.495820415566264 -0.5443611295710028 50.663793732394545 0.5108799008802387C50.02569180757852 0.6502316421757319 47.260771406608846 0.8562760281358037 42.56858019824973 4.669771020893953C39.23357276592046 7.380239026281496 35.94708352400106 10.977478004796353 32.31065575067048 14.540972144237934C25.45300674595967 21.261081429551066 18.847721935406756 27.82300069027147 18.847721935406756 27.82300069027147L13.513666505931484 22.17435752726777C13.513666505931484 22.17435752726777 12.754748085069783 20.932795495569152 12.635116199900263 19.50521845024404C12.507614548500774 17.98373084269517 13.0610772116945 16.104373094979564 14.517723998538594 14.663524310526583C15.738500034058848 13.455988150933939 17.94590335881299 12.783886612331425 19.538011461574147 12.987553262162846C21.62809753983561 13.25492256223556 22.989459092411085 14.663524310526583 22.989459092411085 14.663524310526583L22.98945908990094 14.663524310526576Z"/>
            </g>
            <g opacity="1">
              <use xlink:href="#path-6" fill="rgb(0,0,0)" fill-opacity="0"/>
              <use xlink:href="#path-6" fill-opacity="0" stroke="rgb(128,128,128)" stroke-opacity="1" stroke-width="1" stroke-linecap="butt" stroke-linejoin="miter"/>
            </g>
          </g>
        </g>
      </g>
    </g>
  </g>
</svg>