<svg xmlns="http://www.w3.org/2000/svg" xmlns:xlink="http://www.w3.org/1999/xlink" height="512" width="577">
  <defs>
    <rect id="rect-1" opacity="1" x="0" y="0" width="512" height="512"/>
    <mask id="mask-2" maskUnits="userSpaceOnUse" maskContentUnits="userSpaceOnUse">
      <rect opacity="1" x="0" y="0" width="577" height="512" fill="Black"/>
      <use xlink:href="#rect-1" fill="White"/>
    </mask>
    <rect id="rect-29" opacity="1" x="47" y="0" width="129.99999999999994" height="129"/>
    <mask id="mask-30" maskUnits="userSpaceOnUse" maskContentUnits="userSpaceOnUse">
      <rect opacity="1" x="0" y="0" width="577" height="512" fill="Black"/>
      <use xlink:href="#rect-29" fill="White"/>
    </mask>
    <rect id="rect-40" opacity="1" x="447" y="127" width="129.99999999999994" height="129"/>
    <mask id="mask-41" maskUnits="userSpaceOnUse" maskContentUnits="userSpaceOnUse">
      <rect opacity="1" x="0" y="0" width="577" height="512" fill="Black"/>
      <use xlink:href="#rect-40" fill="White"/>
    </mask>
  </defs>
  <g opacity="1">
    <g opacity="1">
      <g/>
      <g mask="url(#mask-2)">
        <g opacity="1">
          <g opacity="1">
            <g opacity="1">
              <path fill="rgb(90,90,90)" fill-opacity="1" opacity="1" fill-rule="evenodd" d="M300.778 113.90799999999999L264.865 113.90799999999999L264.865 69.91399999999999C264.865 59.99699999999999 272.904 51.956999999999994 282.822 51.956999999999994C292.739 51.956999999999994 300.779 59.995999999999995 300.779 69.91399999999999L300.779 113.90799999999999L300.778 113.90799999999999Z"/>
            </g>
          </g>
          <g opacity="1">
            <g opacity="1">
              <path fill="rgb(68,68,68)" fill-opacity="1" opacity="1" fill-rule="evenodd" d="M300.77699999999993 69.919L300.77699999999993 113.912L283.83199999999994 113.912L283.83199999999994 70.177C283.83199999999994 64.191 281.40599999999995 58.76100000000001 277.47799999999995 54.833000000000006C276.96099999999996 54.316 276.424 53.82900000000001 275.85699999999997 53.361000000000004C277.99499999999995 52.456 280.352 51.959 282.818 51.959C287.78 51.959 292.265 53.968 295.517 57.219C298.769 60.472 300.777 64.95700000000001 300.777 69.919L300.77699999999993 69.919Z"/>
            </g>
          </g>
          <g opacity="1">
            <g opacity="1">
              <path fill="rgb(175,104,55)" fill-opacity="1" opacity="1" fill-rule="evenodd" d="M333.619 386.55L425.856 346.919C435.897 343.03499999999997 447.253 347.33 452.21 356.887C458.19399999999996 368.424 452.43199999999996 382.576 440.091 386.652L391.337 403.462L316.41499999999996 427.098L316.41499999999996 393.23900000000003L333.619 386.55Z"/>
            </g>
          </g>
          <g opacity="1">
            <g opacity="1">
              <path fill="rgb(155,89,45)" fill-opacity="1" opacity="1" fill-rule="evenodd" d="M454.593 366.58899999999994C454.593 375.34999999999997 449.094 383.68299999999994 440.095 386.65599999999995L391.33900000000006 403.46199999999993L316.4200000000001 427.09899999999993L316.4200000000001 408.5829999999999L384.37800000000004 387.1529999999999L433.134 370.33699999999993C441.915 367.43299999999994 447.35400000000004 359.4479999999999 447.613 350.92599999999993C449.443 352.57699999999994 451.014 354.57499999999993 452.207 356.8829999999999C453.827 360.0059999999999 454.593 363.32699999999994 454.593 366.58899999999994L454.593 366.58899999999994Z"/>
            </g>
          </g>
          <g opacity="1">
            <g opacity="1">
              <ellipse fill="rgb(250,198,0)" fill-opacity="1" opacity="1" rx="150.3" ry="150.3" cx="282.82099999999997" cy="254.85200000000003"/>
            </g>
          </g>
          <g opacity="1">
            <g opacity="1">
              <path fill="rgb(232,184,0)" fill-opacity="1" opacity="1" fill-rule="evenodd" d="M433.12299999999993 254.356C433.12299999999993 337.359 365.83099999999996 404.65099999999995 282.8179999999999 404.65099999999995C256.7049999999999 404.65099999999995 232.14299999999992 397.98799999999994 210.75299999999993 386.27399999999994C226.87199999999993 392.17099999999994 244.27499999999992 395.3929999999999 262.43199999999996 395.3929999999999C345.445 395.3929999999999 412.73699999999997 328.1009999999999 412.73699999999997 245.0879999999999C412.73699999999997 188.2079999999999 381.135 138.7059999999999 334.537 113.17899999999992C392.07399999999996 134.2709999999999 433.123 189.51999999999992 433.123 254.3559999999999L433.12299999999993 254.356Z"/>
            </g>
          </g>
          <g opacity="1">
            <g opacity="1">
              <ellipse fill="rgb(249,247,248)" fill-opacity="1" opacity="1" rx="115.25" ry="115.25" cx="282.821" cy="254.35199999999998"/>
            </g>
          </g>
          <g opacity="1">
            <g opacity="1">
              <path fill="rgb(239,237,239)" fill-opacity="1" opacity="1" fill-rule="evenodd" d="M398.06999999999994 254.356C398.06999999999994 317.998 346.4699999999999 369.598 282.818 369.598C255.40199999999996 369.598 230.21399999999997 360.022 210.42499999999995 344.022C226.63399999999996 352.723 245.16999999999996 357.66499999999996 264.8689999999999 357.66499999999996C328.51099999999997 357.66499999999996 380.111 306.06499999999994 380.111 242.42299999999994C380.111 206.19699999999995 363.405 173.87799999999993 337.272 152.76699999999994C373.46899999999994 172.18799999999993 398.06999999999994 210.40299999999993 398.06999999999994 254.35599999999994L398.06999999999994 254.356Z"/>
            </g>
          </g>
          <g opacity="1">
            <g opacity="1">
              <path fill="rgb(96,183,255)" fill-opacity="1" opacity="1" fill-rule="evenodd" d="M64.121 502.53099999999995L22.914 502.53099999999995C14.401 502.53099999999995 7.5 495.62999999999994 7.5 487.11699999999996L7.5 366.69499999999994C7.5 358.18199999999996 14.401 351.28099999999995 22.914 351.28099999999995L64.12100000000001 351.28099999999995C72.63400000000001 351.28099999999995 79.53500000000001 358.18199999999996 79.53500000000001 366.69499999999994L79.53500000000001 487.1169999999999C79.53500000000001 495.6299999999999 72.63400000000001 502.5309999999999 64.12100000000001 502.5309999999999L64.121 502.53099999999995Z"/>
            </g>
          </g>
          <g opacity="1">
            <g opacity="1">
              <path fill="rgb(38,166,254)" fill-opacity="1" opacity="1" fill-rule="evenodd" d="M79.53100000000005 366.698L79.53100000000005 487.121C79.53100000000005 495.633 72.63000000000005 502.534 64.11800000000005 502.534L44.22900000000004 502.534C52.74100000000004 502.534 59.64200000000004 495.633 59.64200000000004 487.121L59.64200000000004 366.698C59.64200000000004 358.186 52.74100000000004 351.28499999999997 44.22900000000004 351.28499999999997L64.11700000000005 351.28499999999997C72.63000000000005 351.28499999999997 79.53100000000005 358.186 79.53100000000005 366.698L79.53100000000005 366.698Z"/>
            </g>
          </g>
          <g opacity="1">
            <g opacity="1">
              <path fill="rgb(216,138,85)" fill-opacity="1" opacity="1" fill-rule="evenodd" d="M499.76800000000003 391.282C491.77 378.89799999999997 475.98799999999994 374.114 462.46000000000004 379.972L324.13199999999995 425.657L323.88 425.637C332.22399999999993 422.803 338.68399999999997 415.455 339.927 406.128C341.674 393.02299999999997 332.467 380.983 319.36199999999997 379.235C294.062 374.257 268.76199999999994 369.279 243.46099999999998 364.3C233.34099999999998 362.309 198.48499999999999 354.765 191.54499999999996 355.209C177.398 356.115 164.737 366.509 153.82199999999997 374.255C129.29399999999998 391.661 104.65799999999997 386.462 79.53499999999997 377.957L79.53499999999997 470.502L140.06399999999996 466.968C152.87999999999997 465.873 165.77899999999997 467.61 177.84899999999996 472.05600000000004C177.84899999999996 472.05600000000004 235.72799999999995 493.374 235.76099999999997 493.386C275.366 507.973 310.21899999999994 490.93800000000005 346.995 478.548C393.5899999999999 462.849 441.3109999999999 450.731 487.78999999999996 434.67C503.946 426.695 509.544 406.41900000000004 499.76800000000003 391.28200000000004L499.76800000000003 391.282Z"/>
            </g>
          </g>
          <g opacity="1">
            <g opacity="1">
              <path fill="rgb(197,122,68)" fill-opacity="1" opacity="1" fill-rule="evenodd" d="M487.78599999999994 434.67599999999993C441.307 450.73599999999993 393.58500000000004 462.84799999999996 346.99699999999996 478.5489999999999C310.21399999999994 490.9389999999999 275.36 507.97399999999993 235.76199999999997 493.3859999999999C235.72199999999998 493.3759999999999 177.84799999999998 472.0559999999999 177.84799999999998 472.0559999999999C165.77599999999998 467.61099999999993 152.878 465.8809999999999 140.05999999999997 466.9749999999999L79.52999999999997 470.5049999999999L79.52999999999997 450.7059999999999L140.05999999999997 447.1659999999999C152.878 446.0719999999999 167.63499999999996 445.95299999999986 179.70699999999997 450.3979999999999C179.70699999999997 450.3979999999999 237.58199999999997 471.7179999999999 237.62099999999995 471.7279999999999C277.21799999999996 486.3159999999999 310.21299999999997 471.1409999999999 346.996 458.7509999999999C393.58399999999995 443.0489999999999 441.3059999999999 430.9269999999999 487.78499999999997 414.86799999999994C495.23299999999995 411.18899999999996 500.43399999999997 404.90399999999994 502.91999999999996 397.71399999999994C507.823 411.7149999999999 501.73799999999994 427.7749999999999 487.78599999999994 434.67599999999993L487.78599999999994 434.67599999999993Z"/>
            </g>
          </g>
          <g opacity="1">
            <g opacity="1">
              <path fill="rgb(0,0,0)" fill-opacity="1" opacity="1" fill-rule="evenodd" d="M282.821 188.877C286.964 188.877 290.321 185.519 290.321 181.377L290.321 169.255C290.321 165.113 286.964 161.755 282.821 161.755C278.67800000000005 161.755 275.321 165.113 275.321 169.255L275.321 181.377C275.321 185.519 278.67900000000003 188.877 282.821 188.877L282.821 188.877Z"/>
            </g>
            <g opacity="1">
              <path fill="rgb(0,0,0)" fill-opacity="1" opacity="1" fill-rule="evenodd" d="M282.821 319.827C278.67800000000005 319.827 275.321 323.185 275.321 327.327L275.321 339.449C275.321 343.591 278.67800000000005 346.949 282.821 346.949C286.964 346.949 290.321 343.591 290.321 339.449L290.321 327.327C290.321 323.185 286.964 319.827 282.821 319.827L282.821 319.827Z"/>
            </g>
            <g opacity="1">
              <path fill="rgb(0,0,0)" fill-opacity="1" opacity="1" fill-rule="evenodd" d="M239.83800000000002 194.90400000000002C241.22700000000003 197.31000000000003 243.74800000000002 198.65500000000003 246.34000000000003 198.65500000000003C247.61200000000002 198.65500000000003 248.90200000000004 198.33100000000002 250.08300000000003 197.64900000000003C253.67000000000002 195.57800000000003 254.89900000000003 190.99100000000004 252.82800000000003 187.40400000000002L246.76700000000002 176.90600000000003C244.69600000000003 173.31900000000005 240.10800000000003 172.09000000000003 236.52200000000002 174.16100000000003C232.93500000000003 176.23200000000003 231.70600000000002 180.81900000000002 233.77700000000002 184.40600000000003L239.83800000000002 194.90400000000002Z"/>
            </g>
            <g opacity="1">
              <path fill="rgb(0,0,0)" fill-opacity="1" opacity="1" fill-rule="evenodd" d="M318.874 331.798C320.26300000000003 334.204 322.78400000000005 335.549 325.37600000000003 335.549C326.648 335.549 327.93800000000005 335.22499999999997 329.119 334.543C332.706 332.472 333.935 327.885 331.86400000000003 324.298L325.80300000000005 313.8C323.73300000000006 310.213 319.1460000000001 308.983 315.55800000000005 311.055C311.97100000000006 313.12600000000003 310.7420000000001 317.713 312.81300000000005 321.3L318.874 331.798Z"/>
            </g>
            <g opacity="1">
              <path fill="rgb(0,0,0)" fill-opacity="1" opacity="1" fill-rule="evenodd" d="M202.62999999999997 208.05399999999997C200.55899999999997 211.64099999999996 201.78799999999995 216.22799999999998 205.37499999999997 218.29899999999998L215.87299999999996 224.35999999999999C217.05399999999997 225.04199999999997 218.34399999999997 225.36599999999999 219.61599999999996 225.36599999999999C222.20799999999997 225.36599999999999 224.72899999999996 224.01999999999998 226.11799999999997 221.61499999999998C228.18899999999996 218.028 226.95999999999998 213.44099999999997 223.37299999999996 211.36999999999998L212.87499999999997 205.30899999999997C209.28799999999998 203.23699999999997 204.70099999999996 204.46699999999996 202.62999999999997 208.05399999999997L202.62999999999997 208.05399999999997Z"/>
            </g>
            <g opacity="1">
              <path fill="rgb(0,0,0)" fill-opacity="1" opacity="1" fill-rule="evenodd" d="M342.269 297.335L352.767 303.39599999999996C353.949 304.078 355.238 304.40199999999993 356.51 304.40199999999993C359.102 304.40199999999993 361.623 303.0559999999999 363.012 300.65099999999995C365.083 297.06399999999996 363.854 292.477 360.267 290.40599999999995L349.769 284.34499999999997C346.18 282.27299999999997 341.594 283.503 339.524 287.09C337.452 290.67699999999996 338.682 295.26399999999995 342.269 297.335L342.269 297.335Z"/>
            </g>
            <g opacity="1">
              <path fill="rgb(0,0,0)" fill-opacity="1" opacity="1" fill-rule="evenodd" d="M217.34599999999995 254.35199999999998C217.34599999999995 250.20999999999998 213.98799999999994 246.85199999999998 209.84599999999995 246.85199999999998L197.72399999999993 246.85199999999998C193.58199999999994 246.85199999999998 190.22399999999993 250.20999999999998 190.22399999999993 254.35199999999998C190.22399999999993 258.49399999999997 193.58199999999994 261.852 197.72399999999993 261.852L209.84599999999995 261.852C213.98799999999994 261.852 217.34599999999995 258.4949999999999 217.34599999999995 254.35199999999995L217.34599999999995 254.35199999999998Z"/>
            </g>
            <g opacity="1">
              <path fill="rgb(0,0,0)" fill-opacity="1" opacity="1" fill-rule="evenodd" d="M348.29600000000005 254.352C348.29600000000005 258.494 351.6530000000001 261.852 355.79600000000005 261.852L367.91800000000006 261.852C372.06100000000004 261.852 375.41800000000006 258.49399999999997 375.41800000000006 254.35199999999998C375.41800000000006 250.20999999999998 372.06100000000004 246.85199999999998 367.91800000000006 246.85199999999998L355.79600000000005 246.85199999999998C351.6530000000001 246.85199999999998 348.29600000000005 250.20999999999998 348.29600000000005 254.35199999999998L348.29600000000005 254.352Z"/>
            </g>
            <g opacity="1">
              <path fill="rgb(0,0,0)" fill-opacity="1" opacity="1" fill-rule="evenodd" d="M215.87299999999996 284.345L205.37499999999997 290.406C201.78799999999998 292.47700000000003 200.55899999999997 297.064 202.62999999999997 300.651C204.01899999999998 303.057 206.53999999999996 304.402 209.13199999999998 304.402C210.40399999999997 304.402 211.694 304.078 212.87499999999997 303.396L223.37299999999996 297.33500000000004C226.95999999999995 295.264 228.18899999999996 290.677 226.11799999999997 287.09000000000003C224.04699999999997 283.50300000000004 219.45999999999998 282.273 215.87299999999996 284.345L215.87299999999996 284.345Z"/>
            </g>
            <g opacity="1">
              <path fill="rgb(0,0,0)" fill-opacity="1" opacity="1" fill-rule="evenodd" d="M346.025 225.367C347.29699999999997 225.367 348.58799999999997 225.04299999999998 349.768 224.361L360.26599999999996 218.29999999999998C363.85299999999995 216.22899999999998 365.08199999999994 211.642 363.01099999999997 208.05499999999998C360.941 204.46699999999998 356.352 203.23899999999998 352.76599999999996 205.30999999999997L342.268 211.37099999999998C338.681 213.44199999999998 337.452 218.02899999999997 339.52299999999997 221.61599999999999C340.912 224.021 343.43399999999997 225.367 346.025 225.367L346.025 225.367Z"/>
            </g>
            <g opacity="1">
              <path fill="rgb(0,0,0)" fill-opacity="1" opacity="1" fill-rule="evenodd" d="M236.52200000000002 334.543C237.70300000000003 335.225 238.99300000000002 335.549 240.26500000000001 335.549C242.85700000000003 335.549 245.37800000000001 334.203 246.76700000000002 331.798L252.82800000000003 321.3C254.89900000000003 317.713 253.67000000000004 313.12600000000003 250.08300000000003 311.055C246.49600000000004 308.982 241.90900000000002 310.213 239.83800000000002 313.8L233.77700000000002 324.298C231.70600000000002 327.886 232.935 332.473 236.52200000000002 334.543L236.52200000000002 334.543Z"/>
            </g>
            <g opacity="1">
              <path fill="rgb(0,0,0)" fill-opacity="1" opacity="1" fill-rule="evenodd" d="M315.55899999999997 197.649C316.741 198.331 318.03 198.655 319.30199999999996 198.655C321.89399999999995 198.655 324.41499999999996 197.309 325.804 194.904L331.86499999999995 184.406C333.936 180.81900000000002 332.70699999999994 176.232 329.11999999999995 174.161C325.53 172.089 320.94399999999996 173.319 318.87499999999994 176.906L312.81399999999996 187.404C310.74199999999996 190.992 311.972 195.579 315.55899999999997 197.649L315.55899999999997 197.649Z"/>
            </g>
            <g transform="translate(282.8128266643209, 254.21824664794352) rotate(-13.340004769905995) translate(-282.8128266643209, -254.21824664794352)" opacity="1">
              <ellipse fill="rgb(0,0,0)" fill-opacity="1" opacity="1" rx="9.261" ry="9.261" cx="282.8128266643209" cy="254.21824664794352"/>
            </g>
            <g opacity="1">
              <path fill="rgb(0,0,0)" fill-opacity="1" opacity="1" fill-rule="evenodd" d="M461.5040283203125 372.2830352783203C477.97705078125 366.2310333251953 496.4329833984375 372.29603576660156 506.0679931640625 387.21302795410156C511.886962890625 396.22303771972656 513.5869140625 407.31898498535156 510.7330322265625 417.65699768066406C507.8790283203125 427.99598693847656 500.72607421875 436.6480255126953 491.1090087890625 441.39698791503906C490.8270263671875 441.53602600097656 440.530029296875 457.7119903564453 416.1669921875 464.94703674316406C394.176025390625 471.4760284423828 339.302001953125 489.15699768066406 334.3900146484375 490.9099884033203C312.81500244140625 498.6110382080078 290.7349853515625 506.49000549316406 267.2760009765625 506.4910430908203C252.97198486328125 506.4910430908203 240.00299072265625 502.94300842285156 226.760986328125 498.0659942626953C226.739990234375 498.0590362548828 218.22698974609375 494.92298889160156 218.22698974609375 494.92298889160156C214.34100341796875 493.4910430908203 212.3499755859375 489.1800079345703 213.781982421875 485.29298400878906C215.2139892578125 481.40699768066406 219.52301025390625 479.41603088378906 223.4119873046875 480.84803771972656L238.3499755859375 486.34901428222656C269.94329833984375 497.9864044189453 298.79791259765625 487.68812561035156 329.34521484375 476.7857208251953L329.3499755859375 476.7840118408203C334.323974609375 475.0089874267578 389.780029296875 457.13600158691406 411.89892578125 450.56800842285156C435.947998046875 443.42701721191406 460.81005859375 436.0440216064453 484.864013671875 427.7480010986328C490.450927734375 424.85304260253906 494.5980224609375 419.7429962158203 496.2760009765625 413.6649932861328C497.9930419921875 407.4450225830078 496.969970703125 400.77003479003906 493.469970703125 395.34999084472656C487.43603515625 386.0070343017578 475.64892578125 382.43299865722656 465.4429931640625 386.85401916503906C465.237060546875 386.94300842285156 326.4859619140625 432.7780303955078 326.4859619140625 432.7780303955078C326.0589599609375 432.91798400878906 316.6700439453125 434.7260284423828 312.1510009765625 434.14002990722656L245.9520263671875 427.1179962158203C241.8330078125 426.6809844970703 238.8480224609375 422.9879913330078 239.2850341796875 418.86903381347656C239.72100830078125 414.75001525878906 243.4129638671875 411.76002502441406 247.53399658203125 412.20204162597656L313.8270263671875 419.23402404785156C313.89404296875 419.2410430908203 313.96099853515625 419.24903869628906 314.0269775390625 419.2580108642578C323.02099609375 420.45399475097656 331.2960205078125 414.12001037597656 332.4940185546875 405.13502502441406C333.6920166015625 396.15003967285156 327.35699462890625 387.8660430908203 318.37200927734375 386.66798400878906C318.218017578125 386.6480255126953 262.35400390625 375.84498596191406 234.6400146484375 370.16102600097656L234.5858154296875 370.14991760253906C224.1734619140625 368.01441955566406 196.73779296875 362.38758850097656 192.0260009765625 362.69398498535156C179.1209716796875 363.5330352783203 168.239013671875 373.21400451660156 158.16900634765625 380.3679962158203C133.6390380859375 397.77601623535156 109.0369873046875 394.72499084472656 87.0360107421875 388.2260284423828L87.0360107421875 462.55299377441406L139.52899169921875 459.48902893066406C153.31396484375 458.3260040283203 167.46099853515625 460.23902893066406 180.4429931640625 465.02101135253906C180.4630126953125 465.0280303955078 185.134033203125 466.71900939941406 190.89300537109375 468.8410186767578C194.780029296875 470.2730255126953 196.77001953125 474.58399963378906 195.3380126953125 478.4710235595703C194.22100830078125 481.5030059814453 191.35198974609375 483.38099670410156 188.29901123046875 483.38099670410156C187.43798828125 483.38099670410156 186.56298828125 483.2320098876953 185.7080078125 482.91700744628906C179.96002197265625 480.8000030517578 175.30401611328125 479.11402893066406 175.2960205078125 479.1110382080078C164.29400634765625 475.0590362548828 152.34600830078125 473.4500274658203 140.7030029296875 474.44398498535156C140.635986328125 474.4500274658203 140.5689697265625 474.4550323486328 140.50201416015625 474.45899963378906L87.0360107421875 477.5800323486328L87.0360107421875 487.1170196533203C87.0360107421875 499.7520294189453 76.75701904296875 510.03102111816406 64.12200927734375 510.03102111816406L22.91400146484375 510.03102111816406C10.27899169921875 510.03102111816406 0 499.7520294189453 0 487.1170196533203L0 366.6950225830078C0 354.0600128173828 10.27899169921875 343.78102111816406 22.91400146484375 343.78102111816406L64.12200927734375 343.78102111816406C76.75701904296875 343.78102111816406 87.0360107421875 354.0600128173828 87.0360107421875 366.6950225830078L87.0360107421875 372.5030059814453C87.0360107421875 374.6809844970703 110.0689697265625 377.77101135253906 112.8590087890625 377.99403381347656C119.18597412109375 378.50001525878906 125.59100341796875 378.28700256347656 131.7640380859375 376.70204162597656C144.25701904296875 373.49501037597656 153.39801025390625 364.77198791503906 163.93402099609375 357.99000549316406C139.718017578125 330.24501037597656 125.02197265625 293.98500061035156 125.02197265625 254.35198974609375C125.02197265625 176.00701904296875 182.416015625 110.82501220703125 257.364990234375 98.61599731445312L257.364990234375 75.51300048828125C247.81201171875 67.97000122070312 241.6600341796875 56.305999755859375 241.6600341796875 43.21800231933594C241.6600341796875 20.522003173828125 260.1240234375 2.0579986572265625 282.82000732421875 2.0579986572265625C305.5159912109375 2.0579986572265625 323.98095703125 20.522994995117188 323.98095703125 43.218994140625C323.98095703125 56.305999755859375 317.8280029296875 67.968994140625 308.2760009765625 75.51100158691406L308.2760009765625 98.61700439453125C383.2249755859375 110.82501220703125 440.6190185546875 176.00701904296875 440.6190185546875 254.35299682617188C440.6190185546875 287.9149932861328 430.071044921875 319.0500030517578 412.136962890625 344.65003967285156L422.89501953125 340.0280303955078C422.97998046875 339.9920196533203 423.06494140625 339.9569854736328 423.1500244140625 339.9240264892578C436.782958984375 334.65101623535156 452.137939453125 340.45899963378906 458.8680419921875 353.4340362548828C461.904052734375 359.2880401611328 462.79296875 365.93202209472656 461.5040283203125 372.2830352783203ZM256.65997314453125 43.21800231933594C256.65997314453125 28.792999267578125 268.39599609375 17.0570068359375 282.82196044921875 17.0570068359375C297.2469482421875 17.0570068359375 308.98297119140625 28.792999267578125 308.98297119140625 43.21800231933594C308.98297119140625 48.37701416015625 307.4749755859375 53.186004638671875 304.885986328125 57.24200439453125C300.4859619140625 49.610015869140625 292.2469482421875 44.457000732421875 282.82196044921875 44.457000732421875C273.40399169921875 44.457000732421875 265.16998291015625 49.60200500488281 260.7669677734375 57.225006103515625C258.178955078125 53.17100524902344 256.65997314453125 48.37400817871094 256.65997314453125 43.21800231933594ZM293.27703857421875 96.90798950195312L293.27703857421875 69.91400146484375C293.27703857421875 64.14799499511719 288.5870361328125 59.457000732421875 282.82098388671875 59.457000732421875C277.05499267578125 59.457000732421875 272.364013671875 64.14799499511719 272.364013671875 69.91400146484375L272.364013671875 96.90798950195312C275.822021484375 96.68099975585938 279.3070068359375 96.55300903320312 282.82098388671875 96.55300903320312C286.33502197265625 96.55300903320312 289.81903076171875 96.68099975585938 293.27703857421875 96.90798950195312ZM320.5980224609375 371.8350372314453L319.24798583984375 371.56898498535156C369.199951171875 356.01502990722656 405.571044921875 309.3560333251953 405.571044921875 254.35198974609375C405.571044921875 186.6669921875 350.5059814453125 131.60202026367188 282.82098388671875 131.60202026367188C258.22296142578125 131.60202026367188 234.489013671875 138.85202026367188 214.18499755859375 152.57000732421875C210.75299072265625 154.88900756835938 209.8499755859375 159.551025390625 212.16900634765625 162.9840087890625C214.489013671875 166.416015625 219.14996337890625 167.3179931640625 222.5830078125 165C240.39801025390625 152.96401977539062 261.22796630859375 146.60299682617188 282.822021484375 146.60299682617188C342.2349853515625 146.60299682617188 390.572021484375 194.93902587890625 390.572021484375 254.35302734375C390.572021484375 313.7670440673828 342.2349853515625 362.10304260253906 282.822021484375 362.10304260253906C223.407958984375 362.10304260253906 175.07196044921875 313.7670440673828 175.07196044921875 254.35302734375C175.07196044921875 229.64599609375 183.2049560546875 206.40802001953125 198.593017578125 187.14901733398438C201.177978515625 183.91302490234375 200.6510009765625 179.1929931640625 197.41497802734375 176.60800170898438C194.177978515625 174.02200317382812 189.4580078125 174.551025390625 186.87396240234375 177.7860107421875C169.59100341796875 199.41799926757812 160.07196044921875 226.61001586914062 160.07196044921875 254.35302734375C160.07196044921875 292.5189971923828 177.59197998046875 326.6580352783203 205 349.18702697753906C198.2979736328125 348.0850372314453 193.6319580078125 347.5640411376953 191.0679931640625 347.7260284423828C186.35198974609375 348.0280303955078 181.886962890625 349.1590118408203 177.635009765625 350.8050079345703C154.2979736328125 325.3770294189453 140.02398681640625 291.50502014160156 140.02398681640625 254.35302734375C140.02398681640625 175.61300659179688 204.083984375 111.55300903320312 282.823974609375 111.55300903320312C361.56298828125 111.55300903320312 425.623046875 175.61300659179688 425.623046875 254.35302734375C425.623046875 312.15101623535156 391.096923828125 362.0230255126953 341.594970703125 384.46998596191406C336.7509765625 377.82704162597656 329.343994140625 373.07106018066406 320.5980224609375 371.8350372314453ZM437.64697265625 379.56202697753906C441.531982421875 378.2780303955078 444.570068359375 375.43800354003906 446.0760498046875 371.73902893066406C447.58203125 368.0399932861328 447.3919677734375 363.88502502441406 445.552001953125 360.3419952392578C442.3680419921875 354.2060089111328 435.134033203125 351.4400177001953 428.676025390625 353.8710479736328L389.1080322265625 370.8720245361328C376.791015625 382.11500549316406 362.69403076171875 391.4400177001953 347.291015625 398.3620147705078C347.7130126953125 401.19898986816406 347.75799560546875 404.1389923095703 347.36102294921875 407.12098693847656C347.218017578125 408.1950225830078 347.02099609375 409.24903869628906 346.7750244140625 410.28199768066406L388.9520263671875 396.3520050048828L437.64697265625 379.56202697753906ZM64.1209716796875 495.03102111816406C68.4849853515625 495.03102111816406 72.03497314453125 491.4810333251953 72.03497314453125 487.1170196533203L72.0360107421875 487.1170196533203L72.0360107421875 366.6950225830078C72.0360107421875 362.3310089111328 68.48602294921875 358.78102111816406 64.12200927734375 358.78102111816406L22.91400146484375 358.78102111816406C18.54998779296875 358.78102111816406 15 362.3310089111328 15 366.6950225830078L15 487.1170196533203C15 491.4810333251953 18.54998779296875 495.03102111816406 22.91400146484375 495.03102111816406L64.1209716796875 495.03102111816406Z"/>
            </g>
          </g>
        </g>
      </g>
    </g>
    <g opacity="1">
      <g/>
      <g mask="url(#mask-30)">
        <g opacity="1">
          <g opacity="1">
            <g opacity="1">
              <ellipse fill="rgb(255,194,80)" fill-opacity="1" opacity="1" rx="62.82714285714282" ry="62.49779259259261" cx="112.22862068965516" cy="64.11331851851855"/>
            </g>
            <g opacity="1">
              <ellipse fill="rgb(244,221,69)" fill-opacity="1" opacity="1" rx="50.229950738916244" ry="49.966637037037025" cx="112.228620689655" cy="64.11331851851858"/>
            </g>
            <g opacity="1">
              <g opacity="1">
                <path fill="rgb(255,194,80)" fill-opacity="1" opacity="1" fill-rule="evenodd" d="M162.45825123152682 64.11395555555549C162.45825123152682 91.70753333333325 139.96761083743814 114.08027407407397 112.2286206896549 114.08027407407397C110.61258620689628 114.08027407407397 109.01608374384209 114.00382962962952 107.44199507389135 113.8538074074073C132.9399261083741 111.45854814814804 152.8849999999997 90.09997037037027 152.8849999999997 64.11395555555549C152.8849999999997 38.124437037036984 132.9399261083741 16.7690444444444 107.44199507389135 14.374103703703657C109.01608374384209 14.224081481481434 110.6129064039406 14.147637037036986 112.2286206896549 14.147637037036986C139.96761083743814 14.147637037036986 162.45825123152682 36.51719259259253 162.45825123152682 64.11395555555549L162.45825123152682 64.11395555555549Z"/>
              </g>
              <g opacity="1">
                <path fill="rgb(255,194,80)" fill-opacity="1" opacity="1" fill-rule="evenodd" d="M121.11505126953125 60.300018310546875C119.698486328125 59.889129638671875 118.24993896484375 59.459442138671875 116.80389404296875 59.01161193847656L116.80389404296875 40.82261657714844C120.78936767578125 41.51856994628906 123.23248291015625 43.13633728027344 123.64105224609375 43.423309326171875C125.80914306640625 44.94837951660156 128.8106689453125 44.43620300292969 130.34405517578125 42.27888488769531C131.877197265625 40.121551513671875 131.3623046875 37.136077880859375 129.193603515625 35.61100769042969C128.06201171875 34.815032958984375 123.61126708984375 31.97735595703125 116.80419921875 31.159072875976562L116.80419921875 27.872604370117188C116.80419921875 25.230499267578125 114.6512451171875 23.088775634765625 111.99517822265625 23.088775634765625C109.33917236328125 23.088775634765625 107.1861572265625 25.230499267578125 107.1861572265625 27.872604370117188L107.1861572265625 31.475692749023438C106.4688720703125 31.605636596679688 105.7401123046875 31.75726318359375 104.996337890625 31.9410400390625C97.52386474609375 33.78877258300781 91.94189453125 39.4781494140625 90.7744140625 46.43586730957031C89.783447265625 52.341522216796875 92.20379638671875 57.96464538574219 97.09033203125 61.11065673828125C99.6563720703125 62.762481689453125 102.83721923828125 64.2783203125 107.1861572265625 65.87632751464844L107.1861572265625 89.23678588867188C103.00341796875 89.02178955078125 100.2205810546875 88.24588012695312 95.56842041015625 85.74774169921875C93.23101806640625 84.49212646484375 90.31365966796875 85.36041259765625 89.0521240234375 87.68496704101562C87.79052734375 90.00982666015625 88.6627197265625 92.91217041015625 90.9998779296875 94.16714477539062C97.31640625 97.55905151367188 101.61279296875 98.55633544921875 107.1861572265625 98.80477905273438L107.1861572265625 102.58111572265625C107.1861572265625 105.22323608398438 109.33917236328125 107.36495971679688 111.99517822265625 107.36495971679688C114.6512451171875 107.36495971679688 116.80419921875 105.22323608398438 116.80419921875 102.58111572265625L116.80419921875 98.4776611328125C128.17889404296875 96.61749267578125 135.11212158203125 88.47329711914062 136.24273681640625 80.44375610351562C137.53668212890625 71.248779296875 131.59893798828125 63.34187316894531 121.11505126953125 60.300018310546875ZM102.31561279296875 53.0782470703125C99.94970703125 51.554779052734375 100.090576171875 49.027008056640625 100.26123046875 48.01094055175781C100.68359375 45.49400329589844 102.72802734375 42.41615295410156 107.18585205078125 41.26312255859375L107.18585205078125 55.58148193359375C105.33734130859375 54.788055419921875 103.6751708984375 53.95353698730469 102.31561279296875 53.0782470703125ZM116.80389404296875 88.70614624023438C122.65228271484375 87.20846557617188 126.15106201171875 83.13619995117188 126.71685791015625 79.1168212890625C127.33807373046875 74.70565795898438 124.314453125 71.1949462890625 118.4215087890625 69.48513793945312C117.8695068359375 69.32492065429688 117.33221435546875 69.16693115234375 116.80389404296875 69.01022338867188L116.80389404296875 88.70614624023438Z"/>
              </g>
            </g>
          </g>
          <g opacity="1">
            <g opacity="1">
              <path fill="rgb(0,0,0)" fill-opacity="1" opacity="1" fill-rule="evenodd" d="M65.25360107421875 18.213180541992188C78.38726806640625 5.379058837890625 99.29705810546875 0 112.2286376953125 0C119.7132568359375 0 130.42919921875 1.8709259033203125 139.93951416015625 6.0608673095703125C149.4498291015625 10.25079345703125 157.95147705078125 17.782363891601562 162.86065673828125 23.57037353515625C172.7388916015625 35.21696472167969 177 57.33332824707031 177 64.11331176757812C177 73.25926208496094 174.62225341796875 88.64132690429688 162.86065673828125 103.6282958984375C151.0989990234375 118.61529541015625 132.17401123046875 129 112.2286376953125 129C76.26153564453125 129 47 99.89187622070312 47 64.11331176757812C47 50.947845458984375 52.11993408203125 31.04730224609375 65.25360107421875 18.213180541992188ZM51.802978515625 64.11331176757812C51.802978515625 97.25738525390625 78.90960693359375 124.22222900390625 112.2286376953125 124.22222900390625C145.54736328125 124.22222900390625 172.654296875 97.25772094726562 172.654296875 64.11331176757812C172.654296875 30.968917846679688 145.5477294921875 4.0044097900390625 112.2286376953125 4.0044097900390625C78.90960693359375 4.0044097900390625 51.802978515625 30.96923828125 51.802978515625 64.11331176757812Z"/>
            </g>
            <g opacity="1">
              <path fill="rgb(0,0,0)" fill-opacity="1" opacity="1" fill-rule="evenodd" d="M59.59716796875 64.11332702636719C59.59716796875 35.244720458984375 83.20751953125 11.75811767578125 112.22857666015625 11.75811767578125C141.2496337890625 11.75811767578125 164.85968017578125 35.24440002441406 164.85968017578125 64.11332702636719C164.85968017578125 92.98223876953125 141.2496337890625 116.46884155273438 112.22857666015625 116.46884155273438C83.20751953125 116.46884155273438 59.59716796875 92.98193359375 59.59716796875 64.11332702636719ZM64.400146484375 64.11331176757812C64.400146484375 90.3477783203125 85.85589599609375 111.69107055664062 112.2286376953125 111.69107055664062C138.60101318359375 111.69107055664062 160.0567626953125 90.3477783203125 160.0567626953125 64.11331176757812C160.0567626953125 37.879180908203125 138.60101318359375 16.535888671875 112.2286376953125 16.535888671875C85.85589599609375 16.535888671875 64.400146484375 37.87886047363281 64.400146484375 64.11331176757812Z"/>
            </g>
            <g opacity="1">
              <path fill="rgb(0,0,0)" fill-opacity="1" opacity="1" fill-rule="evenodd" d="M121.78714285714304 58.00508888888886C120.90083743842382 57.748362962962936 120.0372660098524 57.49386666666663 119.20443349753712 57.2438296296296L119.20443349753712 43.904274074074046C121.02923645320215 44.542266666666634 122.0999753694583 45.26466666666664 122.25527093596077 45.373599999999975C123.82711822660116 46.4801333333333 125.73773399014796 46.911088888888855 127.63714285714302 46.587155555555526C129.53495073891645 46.2632222222222 131.19261083743862 45.22357777777775 132.30529556650265 43.65869629629627C134.5991871921184 40.42923703703701 133.82591133004945 35.943859259259234 130.57975369458143 33.6591259259259C129.40014778325138 32.830340740740716 125.3547783251233 30.257348148148118 119.20443349753711 29.109725925925904L119.20443349753711 27.873555555555534C119.20443349753711 23.91819259259257 115.96948275862084 20.700518518518493 111.99359605911346 20.700518518518493C108.01738916256173 20.700518518518493 104.78243842364549 23.91819259259257 104.78243842364549 27.873555555555534L104.78243842364549 29.534311111111087C104.65916256157652 29.56329629629628 104.53716748768488 29.592918518518495 104.41709359605927 29.622859259259236C102.98773399014794 29.976414814814795 101.60608374384253 30.459288888888864 100.30992610837454 31.05778518518516C99.10694581280805 31.613281481481458 98.58438423645336 33.03387407407405 99.14280788177356 34.23054814814813C99.70155172413808 35.4272222222222 101.12931034482774 35.946725925925904 102.33229064039425 35.39154814814813C103.35179802955682 34.92077777777776 104.44334975369475 34.53982962962961 105.57940886699524 34.25857777777776C106.1951477832514 34.10537037037036 106.86179802955681 33.96362962962962 107.61810344827602 33.82539259259258C108.75800492610853 33.61708148148146 109.58539408867011 32.6287185185185 109.58539408867011 31.475999999999978L109.58539408867011 27.873555555555534C109.58539408867011 26.552977777777762 110.66573891625632 25.47829629629627 111.99359605911346 25.47829629629627C113.3214532019706 25.47829629629627 114.40147783251247 26.55297777777775 114.40147783251247 27.873555555555534L114.40147783251247 31.15748148148146C114.40147783251247 32.365940740740726 115.30859605911346 33.38392592592591 116.5147783251233 33.52917037037035C122.89310344827601 34.29616296296294 127.04253694581297 37.02299999999998 127.80780788177356 37.56034074074072C128.89167487684745 38.32319259259258 129.14943349753713 39.82214074074072 128.38416256157652 40.900325925925905C128.0124137931036 41.422696296296266 127.45879310344844 41.76988148148146 126.82512315270952 41.87817777777775C126.19113300492629 41.98679259259257 125.55394088669968 41.842503703703684 125.0240147783253 41.4695185185185C124.2926847290642 40.95797777777776 121.56812807881789 39.22969629629627 117.21953201970459 38.46875555555554C116.52086206896568 38.34644444444443 115.80298029556666 38.53787407407406 115.25928571428588 38.991762962962945C114.71591133004942 39.445651851851835 114.40179802955682 40.11549629629627 114.40179802955682 40.821333333333314L114.40179802955682 59.011925925925915C114.40179802955682 60.058896296296275 115.087339901478 60.984192592592585 116.09275862068982 61.293792592592574C117.45135467980312 61.71232592592592 118.91561576354697 62.14933333333331 120.44359605911347 62.59207407407406C129.715221674877 65.28228148148148 134.9827832512317 72.16005185185185 133.8640147783253 80.11377777777776C132.92071428571444 86.81604444444443 127.1590886699509 94.36557037037035 116.41359605911347 96.12219999999999C115.25320197044351 96.31203703703703 114.40179802955682 97.30963703703704 114.40179802955682 98.47955555555555L114.40179802955682 102.58207407407407C114.40179802955682 103.90265185185186 113.32177339901494 104.97733333333332 111.9939162561578 104.97733333333332C110.66605911330066 104.97733333333332 109.58571428571446 103.90265185185183 109.58571428571446 102.58207407407407L109.58571428571446 98.80444444444441C109.58571428571446 97.52686666666663 108.57517241379327 96.4751185185185 107.29182266009869 96.41810370370366C102.42546798029574 96.20119259259256 98.38618226601002 95.4192296296296 92.13913793103465 92.06459259259256C91.57302955665041 91.76072592592588 91.16029556650264 91.25619259259256 90.97618226601001 90.64336296296293C90.79238916256175 90.03053333333331 90.85931034482775 89.38298518518515 91.16509852216765 88.81952592592589C91.4702463054189 88.25670370370368 91.9774384236455 87.8461333333333 92.59349753694599 87.66298518518516C93.20987684729081 87.48015555555553 93.86115763546816 87.5467259259259 94.42726600985239 87.85059259259256C99.23982758620707 90.43377777777776 102.42770935960608 91.38519259259256 107.06160098522184 91.62185185185182C107.71480295566519 91.65497777777775 108.36128078817751 91.41895555555553 108.83869458128098 90.96793333333329C109.31578817734008 90.51691111111109 109.5860344827588 89.89070370370368 109.5860344827588 89.2358296296296L109.5860344827588 65.87568148148144C109.5860344827588 64.87585185185182 108.96004926108392 63.98177037037032 108.01738916256176 63.63490370370366C103.89933497536964 62.120666666666615 100.84273399014796 60.68128148148143 98.39674876847309 59.10493333333329C94.32416256157654 56.48384444444441 92.31108374384254 51.780599999999964 93.14327586206915 46.830185185185144C93.51758620689674 44.601829629629584 94.40773399014796 42.52031111111107 95.78970443349772 40.64264444444441C96.57290640394106 39.57815555555551 96.34076354679821 38.08334814814811 95.27066502463072 37.30393333333329C94.2002463054189 36.52451851851848 92.69788177339919 36.75544444444441 91.91435960591151 37.820251851851815C90.08539408867013 40.305333333333294 88.90546798029575 43.07166666666663 88.40628078817753 46.042488888888855C87.25357142857162 52.90146666666662 90.08187192118245 59.44383703703701 95.78682266009871 63.115399999999966C98.20399014778344 64.67359259259256 101.09120689655191 66.0900444444444 104.78371921182284 67.52369629629625L104.78371921182284 86.61155555555553C102.151379310345 86.22359999999996 99.94073891625634 85.38016296296293 96.70899014778344 83.64551111111106C95.01354679802975 82.73550370370366 93.06450738916274 82.5364296296296 91.21921182266028 83.08459999999995C89.37359605911348 83.63308888888884 87.85362068965536 84.86352592592587 86.93913793103467 86.54976296296293C86.02433497536964 88.23568148148144 85.82389162561594 90.1751407407407 86.37495073891644 92.0104444444444C86.92633004926127 93.84606666666662 88.16325123152727 95.35839259259257 89.85837438423664 96.26839999999996C95.87967980295585 99.50168148148144 100.24492610837456 100.63051111111106 104.78339901477851 101.03948888888884L104.78339901477851 102.5817555555555C104.78339901477851 106.53679999999994 108.01834975369476 109.75479259259254 111.99455665024648 109.75479259259254C115.97044334975386 109.75479259259254 119.20539408867013 106.53679999999994 119.20539408867013 102.5817555555555L119.20539408867013 100.44067407407404C131.0718965517243 97.6985481481481 137.49600985221696 88.77079259259256 138.62150246305438 80.77565925925921C140.08896551724158 70.3365333333333 133.4820197044337 61.398585185185155 121.78714285714304 58.005088888888835L121.78714285714304 58.00508888888886Z"/>
            </g>
            <g opacity="1">
              <path fill="rgb(0,0,0)" fill-opacity="1" opacity="1" fill-rule="evenodd" d="M116.803955078125 91.09503173828125C116.27655029296875 91.09503173828125 115.7581787109375 90.92239379882812 115.3326416015625 90.59432983398438C114.7457275390625 90.14202880859375 114.4024658203125 89.44479370117188 114.4024658203125 88.70614624023438L114.4024658203125 69.00991821289062C114.4024658203125 68.25566101074219 114.7611083984375 67.54568481445312 115.36883544921875 67.09466552734375C115.9765625 66.64395141601562 116.76263427734375 66.50508117675781 117.4901123046875 66.72071838378906C118.0142822265625 66.87615966796875 118.5467529296875 67.03254699707031 119.09429931640625 67.19148254394531C126.14886474609375 69.23860168457031 129.88751220703125 73.82049560546875 129.0953369140625 79.44808959960938C128.334228515625 84.85333251953125 123.7445068359375 89.39541625976562 117.4027099609375 91.01953125C117.20513916015625 91.0701904296875 117.00372314453125 91.09503173828125 116.803955078125 91.09503173828125ZM124.33843994140625 78.78555297851562C124.57476806640625 77.10855102539062 124.16204833984375 74.15875244140625 119.20538330078125 72.26388549804688L119.20538330078125 85.22760009765625C121.7598876953125 83.8697509765625 123.93438720703125 81.65444946289062 124.33843994140625 78.78555297851562Z"/>
            </g>
            <g opacity="1">
              <path fill="rgb(0,0,0)" fill-opacity="1" opacity="1" fill-rule="evenodd" d="M106.2342529296875 57.77479553222656C104.12603759765625 56.86988830566406 102.41778564453125 55.989501953125 101.0108642578125 55.083953857421875C98.54083251953125 53.49359130859375 97.37469482421875 50.70240783691406 97.8924560546875 47.61787414550781C98.436767578125 44.373443603515625 101.0057373046875 40.39323425292969 106.58197021484375 38.95130920410156C107.30078125 38.76560974121094 108.0670166015625 38.92137145996094 108.65521240234375 39.3736572265625C109.243408203125 39.825958251953125 109.587646484375 40.523834228515625 109.587646484375 41.263427734375L109.587646484375 55.58148193359375C109.587646484375 56.3857421875 109.1806640625 57.13584899902344 108.50537109375 57.57763671875C108.10772705078125 57.83753967285156 107.648193359375 57.970367431640625 107.18585205078125 57.970367431640625C106.8634033203125 57.970367431640625 106.53936767578125 57.90570068359375 106.2342529296875 57.77479553222656ZM104.7840576171875 45.00157165527344C103.48211669921875 46.01446533203125 102.8157958984375 47.294586181640625 102.62945556640625 48.40461730957031C102.489501953125 49.24041748046875 102.5474853515625 50.381988525390625 103.6201171875 51.07316589355469C103.9752197265625 51.30186462402344 104.36358642578125 51.533111572265625 104.7840576171875 51.76690673828125L104.7840576171875 45.00157165527344Z"/>
            </g>
          </g>
        </g>
      </g>
    </g>
    <g opacity="1">
      <g/>
      <g mask="url(#mask-41)">
        <g opacity="1">
          <g opacity="1">
            <g opacity="1">
              <ellipse fill="rgb(255,194,80)" fill-opacity="1" opacity="1" rx="62.82714285714282" ry="62.49779259259261" cx="512.228620689655" cy="191.11331851851853"/>
            </g>
            <g opacity="1">
              <ellipse fill="rgb(244,221,69)" fill-opacity="1" opacity="1" rx="50.229950738916244" ry="49.966637037037025" cx="512.228620689655" cy="191.11331851851858"/>
            </g>
            <g opacity="1">
              <g opacity="1">
                <path fill="rgb(255,194,80)" fill-opacity="1" opacity="1" fill-rule="evenodd" d="M562.4582512315268 191.1139555555555C562.4582512315268 218.70753333333323 539.9676108374381 241.08027407407397 512.2286206896549 241.08027407407397C510.61258620689625 241.08027407407397 509.0160837438421 241.00382962962954 507.44199507389135 240.85380740740732C532.939926108374 238.45854814814805 552.8849999999998 217.09997037037027 552.8849999999998 191.1139555555555C552.8849999999998 165.12443703703698 532.939926108374 143.7690444444444 507.44199507389135 141.37410370370367C509.0160837438421 141.22408148148142 510.6129064039406 141.147637037037 512.2286206896549 141.147637037037C539.9676108374381 141.147637037037 562.4582512315268 163.51719259259252 562.4582512315268 191.1139555555555L562.4582512315268 191.1139555555555Z"/>
              </g>
              <g opacity="1">
                <path fill="rgb(255,194,80)" fill-opacity="1" opacity="1" fill-rule="evenodd" d="M521.114990234375 187.30001831054688C519.698486328125 186.88912963867188 518.2498779296875 186.45944213867188 516.803955078125 186.0115966796875L516.803955078125 167.82260131835938C520.7894287109375 168.51858520507812 523.2325439453125 170.13632202148438 523.64111328125 170.42330932617188C525.80908203125 171.94839477539062 528.8106689453125 171.43621826171875 530.3441162109375 169.27886962890625C531.877197265625 167.12155151367188 531.3623046875 164.13607788085938 529.193603515625 162.61102294921875C528.06201171875 161.81503295898438 523.611328125 158.97735595703125 516.80419921875 158.15908813476562L516.80419921875 154.87261962890625C516.80419921875 152.23049926757812 514.6512451171875 150.08877563476562 511.9952392578125 150.08877563476562C509.339111328125 150.08877563476562 507.1861572265625 152.23049926757812 507.1861572265625 154.87261962890625L507.1861572265625 158.47567749023438C506.4688720703125 158.60565185546875 505.7401123046875 158.75726318359375 504.996337890625 158.9410400390625C497.52392578125 160.78875732421875 491.94189453125 166.4781494140625 490.7744140625 173.43585205078125C489.783447265625 179.34152221679688 492.203857421875 184.96463012695312 497.09033203125 188.11065673828125C499.6563720703125 189.76248168945312 502.8372802734375 191.2783203125 507.1861572265625 192.87631225585938L507.1861572265625 216.23678588867188C503.00341796875 216.02178955078125 500.2205810546875 215.24588012695312 495.5684814453125 212.74774169921875C493.23095703125 211.49212646484375 490.313720703125 212.36041259765625 489.0521240234375 214.68496704101562C487.79052734375 217.00982666015625 488.6627197265625 219.91217041015625 490.9998779296875 221.16714477539062C497.31640625 224.55905151367188 501.61279296875 225.55633544921875 507.1861572265625 225.80477905273438L507.1861572265625 229.58111572265625C507.1861572265625 232.22323608398438 509.339111328125 234.36495971679688 511.9952392578125 234.36495971679688C514.6512451171875 234.36495971679688 516.80419921875 232.22323608398438 516.80419921875 229.58111572265625L516.80419921875 225.4776611328125C528.178955078125 223.61749267578125 535.1121826171875 215.47329711914062 536.2427978515625 207.44375610351562C537.53662109375 198.248779296875 531.598876953125 190.34185791015625 521.114990234375 187.30001831054688ZM502.315673828125 180.0782470703125C499.94970703125 178.55477905273438 500.090576171875 176.02700805664062 500.26123046875 175.01092529296875C500.68359375 172.4940185546875 502.72802734375 169.41616821289062 507.185791015625 168.26312255859375L507.185791015625 182.58148193359375C505.33740234375 181.78805541992188 503.6751708984375 180.95355224609375 502.315673828125 180.0782470703125ZM516.803955078125 215.70614624023438C522.65234375 214.20846557617188 526.151123046875 210.13619995117188 526.7169189453125 206.1168212890625C527.338134765625 201.70565795898438 524.314453125 198.1949462890625 518.421630859375 196.48513793945312C517.86962890625 196.32492065429688 517.332275390625 196.16693115234375 516.803955078125 196.01022338867188L516.803955078125 215.70614624023438Z"/>
              </g>
            </g>
          </g>
          <g opacity="1">
            <g opacity="1">
              <path fill="rgb(0,0,0)" fill-opacity="1" opacity="1" fill-rule="evenodd" d="M465.2535400390625 145.21319580078125C478.38720703125 132.37905883789062 499.2969970703125 127 512.2286376953125 127C519.7132568359375 127 530.42919921875 128.87094116210938 539.9395751953125 133.06085205078125C549.4498291015625 137.25079345703125 557.951416015625 144.7823486328125 562.860595703125 150.57037353515625C572.7388916015625 162.21697998046875 577 184.33334350585938 577 191.11331176757812C577 200.25927734375 574.622314453125 215.64132690429688 562.860595703125 230.6282958984375C551.0989990234375 245.61529541015625 532.174072265625 256 512.2286376953125 256C476.261474609375 256 447 226.89187622070312 447 191.11331176757812C447 177.94784545898438 452.119873046875 158.04730224609375 465.2535400390625 145.21319580078125ZM451.802978515625 191.11334228515625C451.802978515625 224.25741577148438 478.9095458984375 251.22222900390625 512.2286376953125 251.22222900390625C545.54736328125 251.22222900390625 572.654296875 224.25772094726562 572.654296875 191.11334228515625C572.654296875 157.96893310546875 545.5477294921875 131.00442504882812 512.2286376953125 131.00442504882812C478.9095458984375 131.00442504882812 451.802978515625 157.96923828125 451.802978515625 191.11334228515625Z"/>
            </g>
            <g opacity="1">
              <path fill="rgb(0,0,0)" fill-opacity="1" opacity="1" fill-rule="evenodd" d="M459.59716796875 191.11331176757812C459.59716796875 162.24472045898438 483.20751953125 138.75811767578125 512.2286376953125 138.75811767578125C541.2496337890625 138.75811767578125 564.8597412109375 162.244384765625 564.8597412109375 191.11331176757812C564.8597412109375 219.98223876953125 541.2496337890625 243.46884155273438 512.2286376953125 243.46884155273438C483.20751953125 243.46884155273438 459.59716796875 219.98193359375 459.59716796875 191.11331176757812ZM464.400146484375 191.11331176757812C464.400146484375 217.3477783203125 485.85595703125 238.69107055664062 512.2286376953125 238.69107055664062C538.6009521484375 238.69107055664062 560.0567626953125 217.3477783203125 560.0567626953125 191.11331176757812C560.0567626953125 164.87918090820312 538.6009521484375 143.535888671875 512.2286376953125 143.535888671875C485.85595703125 143.535888671875 464.400146484375 164.87884521484375 464.400146484375 191.11331176757812Z"/>
            </g>
            <g opacity="1">
              <path fill="rgb(0,0,0)" fill-opacity="1" opacity="1" fill-rule="evenodd" d="M521.7871428571431 185.00508888888885C520.9008374384239 184.74836296296294 520.0372660098524 184.49386666666663 519.2044334975371 184.2438296296296L519.2044334975371 170.90427407407404C521.0292364532022 171.54226666666665 522.0999753694583 172.26466666666664 522.2552709359608 172.37359999999998C523.8271182266012 173.4801333333333 525.737733990148 173.91108888888886 527.637142857143 173.58715555555554C529.5349507389165 173.2632222222222 531.1926108374386 172.22357777777773 532.3052955665027 170.65869629629628C534.5991871921184 167.429237037037 533.8259113300494 162.94385925925923 530.5797536945814 160.6591259259259C529.4001477832514 159.83034074074072 525.3547783251233 157.2573481481481 519.2044334975371 156.10972592592591L519.2044334975371 154.87355555555553C519.2044334975371 150.91819259259256 515.9694827586209 147.7005185185185 511.99359605911343 147.7005185185185C508.01738916256176 147.7005185185185 504.7824384236455 150.91819259259256 504.7824384236455 154.87355555555553L504.7824384236455 156.5343111111111C504.6591625615765 156.56329629629627 504.5371674876849 156.5929185185185 504.41709359605926 156.62285925925923C502.98773399014794 156.9764148148148 501.60608374384253 157.45928888888886 500.30992610837455 158.05778518518517C499.106945812808 158.61328148148147 498.5843842364534 160.03387407407405 499.14280788177354 161.23054814814813C499.7015517241381 162.4272222222222 501.12931034482773 162.9467259259259 502.33229064039426 162.39154814814813C503.3517980295568 161.92077777777774 504.44334975369475 161.53982962962962 505.5794088669952 161.25857777777776C506.1951477832514 161.10537037037037 506.8617980295568 160.96362962962962 507.61810344827603 160.82539259259258C508.7580049261085 160.61708148148148 509.5853940886701 159.6287185185185 509.5853940886701 158.47599999999997L509.5853940886701 154.87355555555553C509.5853940886701 153.55297777777776 510.6657389162563 152.47829629629626 511.99359605911343 152.47829629629626C513.3214532019706 152.47829629629626 514.4014778325125 153.55297777777776 514.4014778325125 154.87355555555553L514.4014778325125 158.15748148148145C514.4014778325125 159.3659407407407 515.3085960591135 160.38392592592592 516.5147783251233 160.52917037037034C522.8931034482761 161.29616296296294 527.0425369458129 164.02299999999997 527.8078078817736 164.5603407407407C528.8916748768474 165.3231925925926 529.1494334975371 166.82214074074074 528.3841625615765 167.9003259259259C528.0124137931036 168.42269629629627 527.4587931034484 168.76988148148146 526.8251231527096 168.87817777777775C526.1911330049263 168.98679259259256 525.5539408866997 168.84250370370367 525.0240147783253 168.4695185185185C524.2926847290641 167.95797777777776 521.5681280788178 166.22969629629628 517.2195320197046 165.46875555555553C516.5208620689657 165.34644444444444 515.8029802955666 165.53787407407407 515.2592857142859 165.99176296296295C514.7159113300494 166.44565185185184 514.4017980295569 167.11549629629627 514.4017980295569 167.8213333333333L514.4017980295569 186.0119259259259C514.4017980295569 187.05889629629627 515.087339901478 187.9841925925926 516.0927586206898 188.29379259259258C517.4513546798031 188.7123259259259 518.915615763547 189.14933333333332 520.4435960591135 189.59207407407405C529.7152216748771 192.28228148148148 534.9827832512317 199.16005185185185 533.8640147783253 207.11377777777776C532.9207142857144 213.81604444444443 527.159088669951 221.36557037037034 516.4135960591135 223.1222C515.2532019704436 223.31203703703704 514.4017980295569 224.30963703703702 514.4017980295569 225.47955555555555L514.4017980295569 229.58207407407406C514.4017980295569 230.90265185185186 513.321773399015 231.97733333333332 511.9939162561578 231.97733333333332C510.66605911330066 231.97733333333332 509.58571428571446 230.90265185185183 509.58571428571446 229.58207407407406L509.58571428571446 225.8044444444444C509.58571428571446 224.52686666666665 508.57517241379327 223.4751185185185 507.2918226600987 223.41810370370365C502.4254679802957 223.20119259259258 498.38618226601005 222.4192296296296 492.13913793103467 219.06459259259256C491.5730295566504 218.7607259259259 491.1602955665026 218.25619259259256 490.97618226601 217.64336296296293C490.79238916256173 217.03053333333332 490.85931034482775 216.38298518518513 491.1650985221677 215.8195259259259C491.47024630541887 215.2567037037037 491.9774384236455 214.84613333333328 492.59349753694596 214.66298518518516C493.20987684729084 214.48015555555554 493.86115763546815 214.5467259259259 494.4272660098524 214.85059259259256C499.23982758620707 217.43377777777778 502.42770935960607 218.38519259259255 507.06160098522184 218.62185185185183C507.7148029556652 218.65497777777773 508.3612807881775 218.41895555555553 508.83869458128095 217.9679333333333C509.3157881773401 217.51691111111109 509.5860344827588 216.89070370370368 509.5860344827588 216.23582962962962L509.5860344827588 192.87568148148142C509.5860344827588 191.87585185185182 508.9600492610839 190.98177037037033 508.01738916256176 190.63490370370366C503.89933497536964 189.1206666666666 500.84273399014796 187.68128148148142 498.39674876847306 186.1049333333333C494.32416256157654 183.4838444444444 492.3110837438426 178.78059999999996 493.1432758620691 173.83018518518514C493.51758620689674 171.60182962962958 494.40773399014796 169.52031111111106 495.7897044334977 167.64264444444441C496.5729064039411 166.5781555555555 496.3407635467982 165.0833481481481 495.2706650246307 164.3039333333333C494.2002463054189 163.52451851851848 492.6978817733992 163.7554444444444 491.9143596059115 164.82025185185182C490.0853940886701 167.3053333333333 488.9054679802957 170.07166666666663 488.4062807881775 173.04248888888884C487.2535714285716 179.90146666666664 490.0818719211824 186.443837037037 495.7868226600987 190.11539999999997C498.20399014778343 191.67359259259257 501.0912068965519 193.0900444444444 504.7837192118228 194.52369629629624L504.7837192118228 213.61155555555553C502.151379310345 213.22359999999998 499.94073891625635 212.3801629629629 496.7089901477834 210.64551111111106C495.0135467980297 209.73550370370367 493.06450738916277 209.5364296296296 491.21921182266027 210.08459999999997C489.3735960591135 210.63308888888884 487.8536206896554 211.86352592592587 486.9391379310347 213.54976296296292C486.02433497536964 215.23568148148144 485.82389162561594 217.1751407407407 486.3749507389164 219.0104444444444C486.92633004926125 220.84606666666662 488.1632512315273 222.35839259259257 489.85837438423664 223.26839999999996C495.8796798029559 226.50168148148146 500.24492610837456 227.63051111111105 504.7833990147785 228.03948888888885L504.7833990147785 229.5817555555555C504.7833990147785 233.53679999999994 508.0183497536948 236.75479259259254 511.99455665024647 236.75479259259254C515.9704433497539 236.75479259259254 519.2053940886701 233.53679999999994 519.2053940886701 229.5817555555555L519.2053940886701 227.44067407407402C531.0718965517243 224.69854814814812 537.496009852217 215.77079259259256 538.6215024630544 207.7756592592592C540.0889655172416 197.3365333333333 533.4820197044337 188.39858518518514 521.7871428571431 185.00508888888885L521.7871428571431 185.00508888888885Z"/>
            </g>
            <g opacity="1">
              <path fill="rgb(0,0,0)" fill-opacity="1" opacity="1" fill-rule="evenodd" d="M516.803955078125 218.09500122070312C516.276611328125 218.09500122070312 515.7581787109375 217.92236328125 515.3326416015625 217.59429931640625C514.7457275390625 217.14199829101562 514.4024658203125 216.44476318359375 514.4024658203125 215.70611572265625L514.4024658203125 196.0098876953125C514.4024658203125 195.25564575195312 514.7611083984375 194.545654296875 515.3687744140625 194.09463500976562C515.9765625 193.64395141601562 516.7626953125 193.50506591796875 517.4901123046875 193.720703125C518.0142822265625 193.87612915039062 518.5467529296875 194.03253173828125 519.0943603515625 194.19146728515625C526.14892578125 196.23858642578125 529.8875732421875 200.82049560546875 529.0953369140625 206.44805908203125C528.334228515625 211.85333251953125 523.7445068359375 216.3953857421875 517.4027099609375 218.01953125C517.2052001953125 218.07015991210938 517.0037841796875 218.09500122070312 516.803955078125 218.09500122070312ZM524.3385009765625 205.78555297851562C524.5748291015625 204.10855102539062 524.162109375 201.15875244140625 519.2054443359375 199.26388549804688L519.2054443359375 212.22760009765625C521.760009765625 210.8697509765625 523.9344482421875 208.65444946289062 524.3385009765625 205.78555297851562Z"/>
            </g>
            <g opacity="1">
              <path fill="rgb(0,0,0)" fill-opacity="1" opacity="1" fill-rule="evenodd" d="M506.234130859375 184.77481079101562C504.1259765625 183.86990356445312 502.417724609375 182.989501953125 501.0107421875 182.08395385742188C498.540771484375 180.49359130859375 497.3746337890625 177.70242309570312 497.892333984375 174.61788940429688C498.436767578125 171.37347412109375 501.005615234375 167.39324951171875 506.5819091796875 165.95132446289062C507.30078125 165.765625 508.0670166015625 165.92138671875 508.6551513671875 166.37368774414062C509.243408203125 166.82595825195312 509.587646484375 167.52383422851562 509.587646484375 168.26345825195312L509.587646484375 182.58148193359375C509.587646484375 183.3857421875 509.1806640625 184.1358642578125 508.50537109375 184.57763671875C508.107666015625 184.83755493164062 507.648193359375 184.97036743164062 507.185791015625 184.97036743164062C506.8634033203125 184.97036743164062 506.539306640625 184.90573120117188 506.234130859375 184.77481079101562ZM504.7840576171875 172.00155639648438C503.4820556640625 173.01443481445312 502.8157958984375 174.29458618164062 502.62939453125 175.40460205078125C502.489501953125 176.24038696289062 502.5474853515625 177.3819580078125 503.6201171875 178.07315063476562C503.9752197265625 178.30184936523438 504.3636474609375 178.53311157226562 504.7840576171875 178.76687622070312L504.7840576171875 172.00155639648438Z"/>
            </g>
          </g>
        </g>
      </g>
    </g>
  </g>
</svg>